<svg width="393" height="852" viewBox="0 0 393 852" fill="none" xmlns="http://www.w3.org/2000/svg">
<rect width="393" height="852" fill="white"/>
<circle cx="199" cy="374" r="129" fill="#A1D0FE" fill-opacity="0.46"/>
<path d="M197.928 291C254.62 291 300.642 337.173 300.642 394.049V497.098H95.2146V394.049C95.2146 337.173 141.244 291 197.928 291Z" fill="#D3FB16"/>
<path d="M301.588 334.088H260.608C238.621 334.088 220.797 351.971 220.797 374.03C220.797 396.089 238.621 413.971 260.608 413.971H301.588C323.575 413.971 341.4 396.089 341.4 374.03C341.4 351.971 323.575 334.088 301.588 334.088Z" fill="#B8D500"/>
<path d="M92.9121 276H67.0879C53.2322 276 42 285.626 42 297.5C42 309.374 53.2322 319 67.0879 319H92.9121C106.768 319 118 309.374 118 297.5C118 285.626 106.768 276 92.9121 276Z" fill="#A1D0FE"/>
<path d="M130.524 259H110.476C99.7198 259 91 267.73 91 278.5C91 289.27 99.7198 298 110.476 298H130.524C141.28 298 150 289.27 150 278.5C150 267.73 141.28 259 130.524 259Z" fill="#A1D0FE"/>
<path d="M305.194 262H284.806C273.868 262 265 270.954 265 282C265 293.046 273.868 302 284.806 302H305.194C316.132 302 325 293.046 325 282C325 270.954 316.132 262 305.194 262Z" fill="#A1D0FE"/>
<path d="M338.194 275H317.806C306.868 275 298 283.954 298 295C298 306.046 306.868 315 317.806 315H338.194C349.132 315 358 306.046 358 295C358 283.954 349.132 275 338.194 275Z" fill="#A1D0FE"/>
<path d="M268.864 415.562C303.049 415.562 330.8 443.404 330.8 477.7V497.091H206.928V477.7C206.928 443.404 234.68 415.562 268.864 415.562Z" fill="#215F20"/>
<path d="M178.016 380.652C218.189 380.652 250.802 413.371 250.802 453.675V497.105H105.23V453.675C105.23 413.371 137.843 380.652 178.016 380.652Z" fill="#3E8016"/>
<path d="M114.397 406.882C145.514 406.882 170.782 432.232 170.782 463.451V497.091H58.0115V463.451C58.0115 432.232 83.2796 406.882 114.397 406.882Z" fill="#90B821"/>
<path d="M153.499 438.812C173.606 438.812 189.93 455.189 189.93 475.362V497.098H117.068V475.362C117.068 455.189 133.392 438.812 153.499 438.812Z" fill="#D3FB16"/>
<path d="M251.289 452.3C266.743 452.3 279.283 464.889 279.283 480.386V497.091H223.287V480.386C223.287 464.882 235.834 452.3 251.282 452.3H251.289Z" fill="#215F20"/>
<path d="M352.006 497H41.9382C39.2109 497 37 499.217 37 501.951C37 504.685 39.2109 506.902 41.9382 506.902H352.006C354.733 506.902 356.944 504.685 356.944 501.951C356.944 499.217 354.733 497 352.006 497Z" fill="#DEDEE0"/>
<path d="M295.113 400.462H197.094V398.124C197.094 396.359 198.52 394.928 200.279 394.928H295.113V400.469V400.462Z" fill="#FB3F20"/>
<path d="M350.963 454.701H209.286V487.308H350.963V454.701Z" fill="#110C08"/>
<path d="M260.845 462.851H252.846V497.105H260.845V462.851Z" fill="#110C08"/>
<path d="M252.846 497.098C259.964 497.098 265.734 489.432 265.734 479.975C265.734 470.518 259.964 462.851 252.846 462.851C245.729 462.851 239.958 470.518 239.958 479.975C239.958 489.432 245.729 497.098 252.846 497.098Z" fill="#110C08"/>
<path d="M261.574 497.096C268.685 496.787 274.12 488.878 273.712 479.429C273.304 469.981 267.208 462.572 260.097 462.881C252.986 463.19 247.552 471.1 247.96 480.548C248.368 489.997 254.463 497.405 261.574 497.096Z" fill="#2F2E33"/>
<path d="M260.845 495.131C267.144 495.131 272.251 488.345 272.251 479.975C272.251 471.604 267.144 464.819 260.845 464.819C254.545 464.819 249.438 471.604 249.438 479.975C249.438 488.345 254.545 495.131 260.845 495.131Z" fill="#110C08"/>
<path d="M260.845 493.309C266.388 493.309 270.881 487.339 270.881 479.975C270.881 472.61 266.388 466.64 260.845 466.64C255.302 466.64 250.809 472.61 250.809 479.975C250.809 487.339 255.302 493.309 260.845 493.309Z" fill="white"/>
<path d="M260.845 488.481C264.382 488.481 267.25 484.672 267.25 479.975C267.25 475.277 264.382 471.469 260.845 471.469C257.307 471.469 254.439 475.277 254.439 479.975C254.439 484.672 257.307 488.481 260.845 488.481Z" fill="#110C08"/>
<path d="M332.254 462.851H324.255V497.105H332.254V462.851Z" fill="#110C08"/>
<path d="M324.255 497.098C331.373 497.098 337.143 489.432 337.143 479.975C337.143 470.518 331.373 462.851 324.255 462.851C317.137 462.851 311.367 470.518 311.367 479.975C311.367 489.432 317.137 497.098 324.255 497.098Z" fill="#110C08"/>
<path d="M332.986 497.102C340.097 496.793 345.531 488.883 345.123 479.434C344.715 469.986 338.62 462.577 331.509 462.886C324.398 463.195 318.963 471.105 319.371 480.553C319.779 490.002 325.875 497.411 332.986 497.102Z" fill="#2F2E33"/>
<path d="M332.253 495.131C338.553 495.131 343.66 488.345 343.66 479.975C343.66 471.604 338.553 464.819 332.253 464.819C325.954 464.819 320.847 471.604 320.847 479.975C320.847 488.345 325.954 495.131 332.253 495.131Z" fill="#110C08"/>
<path d="M332.254 493.309C337.796 493.309 342.29 487.339 342.29 479.975C342.29 472.61 337.796 466.64 332.254 466.64C326.711 466.64 322.217 472.61 322.217 479.975C322.217 487.339 326.711 493.309 332.254 493.309Z" fill="white"/>
<path d="M332.253 488.481C335.791 488.481 338.659 484.672 338.659 479.975C338.659 475.277 335.791 471.469 332.253 471.469C328.716 471.469 325.848 475.277 325.848 479.975C325.848 484.672 328.716 488.481 332.253 488.481Z" fill="#110C08"/>
<path d="M350.963 449.712C350.963 443.99 348.299 438.596 343.764 435.121H214.614V479.968H245.585L245.551 476.479C245.071 465.377 251.629 458.992 259.983 458.629C268.343 458.267 275.506 464.044 275.986 475.146C276.056 476.807 276.077 479.975 276.077 479.975H317.203C317.203 479.975 317.182 477.672 317.126 476.465C316.646 465.363 323.031 458.992 331.391 458.629C339.751 458.267 346.915 464.044 347.395 475.146C347.465 476.807 347.423 479.975 347.423 479.975H350.977V449.719L350.963 449.712Z" fill="#C11F0A"/>
<path d="M343.764 435.128H250.266L270.457 400.064C272.286 396.889 275.666 394.928 279.325 394.928H323.261C327.691 394.928 331.621 397.789 332.998 402.018L343.757 435.128H343.764Z" fill="#C11F0A"/>
<path d="M343.764 435.128H249.042V432.427H342.902L343.764 435.128Z" fill="#FB3F20"/>
<path d="M324.798 432.427H256.519L275.138 399.248H314.914C317.356 399.248 319.435 401.013 319.846 403.42L324.791 432.427H324.798Z" fill="#110C08"/>
<path d="M322.746 432.427H256.519L274.456 400.469H313.885C315.853 400.469 317.536 401.892 317.87 403.839L322.746 432.427Z" fill="#2F2E33"/>
<path d="M259.322 432.386H268.558L286.037 402.792H276.793L259.322 432.386Z" fill="#403D47"/>
<path d="M271.375 432.386H273.941L291.42 402.792H288.853L271.375 432.386Z" fill="#403D47"/>
<path d="M270.45 432.427H272.251V404.397L270.45 407.607V432.427Z" fill="#110C08"/>
<path d="M260.845 432.428H272.703C276.23 432.428 279.408 430.285 280.737 427.006C281.397 425.373 280.201 423.587 278.441 423.587H271.451C269.567 423.587 267.765 424.41 266.534 425.84L260.838 432.428H260.845Z" fill="#110C08"/>
<path d="M269.914 430.53H257.583L256.519 432.428H270.45L269.914 430.53Z" fill="#110C08"/>
<path d="M306.742 443.125H317.161C317.815 443.125 318.336 442.594 318.336 441.945C318.336 441.289 317.808 440.766 317.161 440.766H306.742C306.088 440.766 305.567 441.296 305.567 441.945C305.567 442.601 306.095 443.125 306.742 443.125Z" fill="#FB3F20"/>
<path d="M276.07 479.975H317.196V481.314C317.196 483.205 315.666 484.741 313.781 484.741H279.492C277.607 484.741 276.077 483.205 276.077 481.314V479.975H276.07Z" fill="#2F2E33"/>
<path d="M323.81 459.425V435.128" stroke="#110C08" stroke-width="0.86" stroke-miterlimit="10"/>
<path d="M271.347 435.128V455.154C276.007 459.62 279.666 465.907 279.666 472.376V477.609L317.189 477.505" stroke="#110C08" stroke-width="0.86" stroke-miterlimit="10"/>
<path d="M188.97 462.879V462.844H180.972C173.85 462.844 168.084 470.513 168.084 479.968C168.084 489.423 173.857 497.091 180.972 497.091H188.97V497.057C189.214 497.064 189.464 497.084 189.708 497.071C196.823 496.763 202.255 488.851 201.844 479.403C201.448 470.282 195.759 463.088 188.963 462.872L188.97 462.879Z" fill="#110C08"/>
<path d="M347.409 487.308H352.771C355.108 487.308 357 485.41 357 483.066V480.051C357 477.707 355.108 475.809 352.771 475.809H347.409V487.308Z" fill="#818181"/>
<path d="M190.709 432.427H178.851C175.324 432.427 172.146 430.285 170.817 427.006C170.157 425.373 171.353 423.587 173.113 423.587H190.716V432.427H190.709Z" fill="#110C08"/>
<path d="M220.679 462.146H147.538V479.975H220.679V462.146Z" fill="#C11F0A"/>
<path d="M250.266 435.128H177.133L200.286 394.928H273.42L250.266 435.128Z" fill="#FB3F20"/>
<path d="M181.994 432.386L201.538 399.206H267.306L247.832 432.386H181.994Z" fill="#110C08"/>
<path d="M183.803 432.386L202.686 400.42H266.59L247.832 432.386H183.803Z" fill="#2F2E33"/>
<path d="M250.266 435.128H177.126L151.287 454.603C148.923 456.383 147.531 459.181 147.531 462.146H220.672C220.672 459.181 222.063 456.383 224.428 454.603L250.266 435.128Z" fill="#FB3F20"/>
<path d="M169.239 470.296L167.312 463.94C166.735 462.028 167.076 460.004 168.265 458.406C169.419 456.843 171.179 455.95 173.099 455.95H192.212C194.131 455.95 195.891 456.843 197.045 458.406C198.228 460.011 198.575 462.028 197.998 463.94L196.072 470.296H169.246H169.239Z" fill="#C11F0A"/>
<path d="M195.314 469.285H169.976L168.265 463.639C167.256 460.318 169.684 456.948 173.085 456.948H192.198C195.599 456.948 198.026 460.318 197.018 463.639L195.307 469.285H195.314Z" fill="#110C08"/>
<mask id="mask0_9_54" style="mask-type:luminance" maskUnits="userSpaceOnUse" x="169" y="457" width="29" height="13">
<path d="M195.355 469.285H171.262L169.635 464.016C168.675 460.918 170.984 457.771 174.218 457.771H192.392C195.626 457.771 197.936 460.911 196.976 464.016L195.348 469.285H195.355Z" fill="white"/>
</mask>
<g mask="url(#mask0_9_54)">
<path d="M195.355 469.285H171.262L169.635 464.016C168.675 460.918 170.984 457.771 174.218 457.771H192.392C195.626 457.771 197.936 460.911 196.976 464.016L195.348 469.285H195.355Z" fill="#181C1B"/>
<path d="M169.419 459.09H197.198" stroke="#2F2E33" stroke-width="1.36" stroke-miterlimit="10"/>
<path d="M169.419 461.414H197.198" stroke="#2F2E33" stroke-width="1.36" stroke-miterlimit="10"/>
<path d="M169.419 463.73H197.198" stroke="#2F2E33" stroke-width="1.36" stroke-miterlimit="10"/>
<path d="M169.419 466.054H197.198" stroke="#2F2E33" stroke-width="1.36" stroke-miterlimit="10"/>
<path d="M169.419 468.377H197.198" stroke="#2F2E33" stroke-width="1.36" stroke-miterlimit="10"/>
</g>
<path d="M229.15 449.265C219.128 449.823 211.47 452.921 205.127 457.429H219.587C220.213 456.341 221.041 455.371 222.07 454.596L229.15 449.258V449.265Z" fill="white"/>
<path d="M164.245 457.429C163.841 453.982 162.263 451.379 159.515 449.635L152.929 454.603C151.899 455.378 151.072 456.348 150.446 457.436H164.245V457.429Z" fill="white"/>
<path d="M146.036 475.809H220.672V487.308H146.036C143.699 487.308 141.807 485.41 141.807 483.066V480.051C141.807 477.707 143.699 475.809 146.036 475.809Z" fill="#DEDEE0"/>
<path d="M220.679 487.308H232.628C234.965 487.308 236.857 485.41 236.857 483.066V480.051C236.857 477.707 234.965 475.809 232.628 475.809H220.679" fill="#818181"/>
<path d="M197.073 477.595H165.782V484.88H197.073V477.595Z" fill="#4E5754"/>
<path d="M197.073 478.572H167.034V484.887H197.073V478.572Z" fill="white"/>
<path d="M187.781 432.386H203.437L220.915 402.792H205.259L187.781 432.386Z" fill="#403D47"/>
<path d="M206.574 432.386H211.916L229.394 402.792H224.052L206.574 432.386Z" fill="#403D47"/>
<path d="M106.844 497.098H63.7634V394.928H97.7185L106.844 407.496V497.098Z" fill="#685BC6"/>
<path d="M81.367 493.679H65.085V396.247H73.2225L81.367 407.496V493.679Z" fill="#110C08"/>
<path d="M81.367 493.679H66.6917V397.65H74.245L81.367 407.496V493.679Z" fill="#2F2E33"/>
<path d="M97.7323 394.928H74.0639C73.3128 394.928 72.8815 395.787 73.3197 396.394L81.3668 407.496H106.844L97.7323 394.928Z" fill="#8D7FF3"/>
<path d="M95.3189 413.908H93.6844C90.2273 413.908 87.4248 416.72 87.4248 420.188V444.667C87.4248 448.135 90.2273 450.947 93.6844 450.947H95.3189C98.776 450.947 101.579 448.135 101.579 444.667V420.188C101.579 416.72 98.776 413.908 95.3189 413.908Z" fill="white"/>
<path d="M100.243 419.923H89.3584V424.319H100.243V419.923Z" fill="#D3FB16"/>
<path d="M97.5446 420.83H90.1443V421.64H97.5446V420.83Z" fill="#110C08"/>
<path d="M99.3669 420.83H98.4001V421.64H99.3669V420.83Z" fill="#110C08"/>
<path d="M97.4961 428.911C97.4961 430.404 96.2928 431.611 94.8044 431.611C93.316 431.611 92.1128 430.404 92.1128 428.911C92.1128 427.417 93.316 426.21 94.8044 426.21C96.2928 426.21 97.4961 427.417 97.4961 428.911Z" fill="#110C08"/>
<path d="M96.5711 428.911C96.5711 429.895 95.7782 430.69 94.7975 430.69C93.8168 430.69 93.0239 429.895 93.0239 428.911C93.0239 427.927 93.8168 427.131 94.7975 427.131C95.7782 427.131 96.5711 427.927 96.5711 428.911Z" fill="#D3FB16"/>
<path d="M99.3671 427.822H94.7976V429.902H99.3671V427.822Z" fill="#D3FB16"/>
<path d="M189.812 475.39H173.968C172.806 475.39 171.867 474.448 171.867 473.283C171.867 472.118 172.806 471.176 173.968 471.176H189.812C190.973 471.176 191.912 472.118 191.912 473.283C191.912 474.448 190.973 475.39 189.812 475.39Z" fill="#403D47"/>
<path d="M179.866 473.283C179.866 474.267 180.659 475.062 181.64 475.062C182.62 475.062 183.413 474.267 183.413 473.283C183.413 472.299 182.62 471.504 181.64 471.504C180.659 471.504 179.866 472.299 179.866 473.283Z" fill="#D3FB16"/>
<path d="M181.633 472.187H177.063V474.267H181.633V472.187Z" fill="#D3FB16"/>
<path d="M99.3738 428.862H101.933C107.532 428.862 112.074 433.418 112.074 439.036V486.171C112.074 491.788 116.616 496.345 122.215 496.345H157.943C163.542 496.345 168.084 491.788 168.084 486.171V482.249C168.084 477.267 172.104 473.234 177.07 473.234" stroke="#110C08" stroke-width="1.89" stroke-miterlimit="10"/>
<path d="M100.409 149.804C103.985 149.804 106.613 150.668 108.293 152.396C109.973 154.124 110.813 156.32 110.813 158.984V159.02C110.789 161.924 109.889 164.252 108.113 166.004C106.337 167.756 103.781 168.632 100.445 168.632H95.1172V179H89.4652V149.804H100.409ZM105.125 159.164V159.128C105.125 157.688 104.693 156.656 103.829 156.032C102.989 155.408 101.717 155.096 100.013 155.096H95.1172V163.34H100.013C101.813 163.34 103.109 162.992 103.901 162.296C104.717 161.6 105.125 160.556 105.125 159.164ZM121.954 157.652C124.81 157.652 127.09 158.324 128.794 159.668C130.522 160.988 131.386 163.052 131.386 165.86V178.136C128.218 178.952 125.014 179.36 121.774 179.36C118.558 179.36 116.11 178.76 114.43 177.56C112.774 176.336 111.946 174.548 111.946 172.196C111.946 167.684 115.018 165.428 121.162 165.428C122.458 165.428 123.994 165.524 125.77 165.716C125.722 164.732 125.254 163.976 124.366 163.448C123.478 162.92 122.254 162.656 120.694 162.656C118.102 162.656 115.738 163.088 113.602 163.952L114.97 158.732C116.818 158.012 119.146 157.652 121.954 157.652ZM117.67 172.088C117.67 173.624 119.062 174.392 121.846 174.392C123.574 174.392 124.882 174.272 125.77 174.032V170.252C124.474 170.036 123.166 169.928 121.846 169.928C119.062 169.928 117.67 170.648 117.67 172.088ZM146.282 157.724C148.898 157.724 151.994 158.096 155.57 158.84V179.324C155.57 182.084 154.85 184.088 153.41 185.336C151.97 186.584 149.498 187.208 145.994 187.208C143.57 187.208 141.11 186.896 138.614 186.272L137.282 181.052C140.066 181.844 142.718 182.24 145.238 182.24C147.11 182.24 148.382 182 149.054 181.52C149.726 181.04 150.062 180.104 150.062 178.712V178.1C149.006 178.196 147.89 178.244 146.714 178.244H146.606C142.742 178.244 139.802 177.332 137.786 175.508C135.794 173.66 134.798 171.092 134.798 167.804V167.768C134.798 164.72 135.842 162.284 137.93 160.46C140.018 158.636 142.79 157.724 146.246 157.724H146.282ZM149.846 172.412V163.7C148.742 163.388 147.686 163.232 146.678 163.232H146.642C142.634 163.232 140.63 164.816 140.63 167.984V168.02C140.63 169.58 141.17 170.756 142.25 171.548C143.33 172.316 144.83 172.7 146.75 172.7H146.858C148.058 172.7 149.054 172.604 149.846 172.412ZM168.712 157.652C171.568 157.652 173.848 158.324 175.552 159.668C177.28 160.988 178.144 163.052 178.144 165.86V178.136C174.976 178.952 171.772 179.36 168.532 179.36C165.316 179.36 162.868 178.76 161.188 177.56C159.532 176.336 158.704 174.548 158.704 172.196C158.704 167.684 161.776 165.428 167.92 165.428C169.216 165.428 170.752 165.524 172.528 165.716C172.48 164.732 172.012 163.976 171.124 163.448C170.236 162.92 169.012 162.656 167.452 162.656C164.86 162.656 162.496 163.088 160.36 163.952L161.728 158.732C163.576 158.012 165.904 157.652 168.712 157.652ZM164.428 172.088C164.428 173.624 165.82 174.392 168.604 174.392C170.332 174.392 171.64 174.272 172.528 174.032V170.252C171.232 170.036 169.924 169.928 168.604 169.928C165.82 169.928 164.428 170.648 164.428 172.088ZM213.812 179H208.052V166.832C208.052 165.656 207.788 164.768 207.26 164.168C206.756 163.568 205.832 163.268 204.488 163.268C203.384 163.268 202.328 163.568 201.32 164.168C201.416 164.72 201.464 165.38 201.464 166.148V179H195.776C195.776 177.656 195.764 175.628 195.74 172.916C195.74 170.204 195.74 168.176 195.74 166.832C195.74 164.456 194.528 163.268 192.104 163.268C191.288 163.268 190.244 163.388 188.972 163.628V179H183.284V158.804C187.196 158.084 190.208 157.724 192.32 157.724C194.888 157.724 196.916 158.252 198.404 159.308C200.468 158.252 202.568 157.724 204.704 157.724C210.752 157.724 213.776 160.4 213.776 165.752C213.776 167.216 213.776 169.424 213.776 172.376C213.8 175.304 213.812 177.512 213.812 179ZM238.435 168.02C238.435 169.412 238.423 170.3 238.399 170.684H223.567C224.359 173.204 226.183 174.464 229.039 174.464C231.511 174.464 233.563 173.972 235.195 172.988L237.571 177.38C235.051 178.748 232.075 179.432 228.643 179.432C225.331 179.432 222.667 178.436 220.651 176.444C218.635 174.428 217.627 171.776 217.627 168.488C217.627 165.2 218.599 162.548 220.543 160.532C222.511 158.516 225.103 157.508 228.319 157.508C231.367 157.508 233.815 158.48 235.663 160.424C237.511 162.344 238.435 164.876 238.435 168.02ZM228.211 162.476C225.691 162.476 224.131 163.604 223.531 165.86H232.891C232.699 164.804 232.195 163.976 231.379 163.376C230.563 162.776 229.507 162.476 228.211 162.476ZM242.346 179V158.768C246.474 158.072 249.666 157.724 251.922 157.724C258.306 157.724 261.498 160.388 261.498 165.716C261.498 167.204 261.498 169.424 261.498 172.376C261.522 175.304 261.534 177.512 261.534 179H255.81V166.832C255.81 165.56 255.462 164.648 254.766 164.096C254.094 163.544 253.074 163.268 251.706 163.268C250.53 163.268 249.306 163.388 248.034 163.628V179H242.346ZM275.63 179C273.062 179 271.238 178.484 270.158 177.452C269.102 176.396 268.574 174.704 268.574 172.376V163.484H265.01V158.336H268.574V150.992H274.19V158.336H281.714V163.484H274.19V170.684C274.19 171.836 274.466 172.64 275.018 173.096C275.57 173.552 276.47 173.78 277.718 173.78H281.75V179H275.63ZM295.307 179.504C292.067 179.504 289.367 178.484 287.207 176.444C285.047 174.38 283.955 171.764 283.931 168.596V168.56C283.931 165.368 285.011 162.728 287.171 160.64C289.355 158.552 292.067 157.508 295.307 157.508H295.343C298.655 157.532 301.403 158.588 303.587 160.676C305.771 162.74 306.863 165.368 306.863 168.56V168.596C306.863 171.764 305.771 174.368 303.587 176.408C301.427 178.448 298.679 179.48 295.343 179.504H295.307ZM295.379 174.248H295.415C297.119 174.248 298.499 173.708 299.555 172.628C300.611 171.548 301.139 170.204 301.139 168.596V168.56C301.139 166.904 300.611 165.536 299.555 164.456C298.499 163.376 297.119 162.824 295.415 162.8H295.379C293.675 162.8 292.295 163.352 291.239 164.456C290.183 165.536 289.655 166.904 289.655 168.56V168.596C289.655 170.204 290.183 171.548 291.239 172.628C292.295 173.708 293.675 174.248 295.379 174.248ZM119.81 218L117.29 210.872H105.77L103.286 218H97.4175L108.074 188.804H114.914L125.642 218H119.81ZM111.386 194.708L107.462 205.796H115.562L111.602 194.708L111.494 194.348L111.386 194.708ZM138.036 196.904C141.54 196.904 144.312 197.876 146.352 199.82C148.416 201.74 149.448 204.404 149.448 207.812V207.848C149.448 211.256 148.428 213.944 146.388 215.912C144.372 217.856 141.588 218.828 138.036 218.828C136.908 218.828 135.828 218.744 134.796 218.576V225.92H129.108V197.912H130.44C133.176 197.24 135.708 196.904 138.036 196.904ZM143.976 207.884V207.812C143.976 206.084 143.46 204.692 142.428 203.636C141.42 202.58 140.016 202.052 138.216 202.052C137.256 202.052 136.116 202.184 134.796 202.448V213.464C135.684 213.608 136.812 213.68 138.18 213.68C139.956 213.68 141.36 213.152 142.392 212.096C143.448 211.04 143.976 209.636 143.976 207.884ZM152.798 218V198.236C155.342 197.636 158.198 197.336 161.366 197.336H165.254V202.592C164.75 202.592 164.234 202.592 163.706 202.592C163.178 202.568 162.638 202.556 162.086 202.556C160.142 202.556 158.942 202.664 158.486 202.88V218H152.798ZM178.553 218.504C175.313 218.504 172.613 217.484 170.453 215.444C168.293 213.38 167.201 210.764 167.177 207.596V207.56C167.177 204.368 168.257 201.728 170.417 199.64C172.601 197.552 175.313 196.508 178.553 196.508H178.589C181.901 196.532 184.649 197.588 186.833 199.676C189.017 201.74 190.109 204.368 190.109 207.56V207.596C190.109 210.764 189.017 213.368 186.833 215.408C184.673 217.448 181.925 218.48 178.589 218.504H178.553ZM178.625 213.248H178.661C180.365 213.248 181.745 212.708 182.801 211.628C183.857 210.548 184.385 209.204 184.385 207.596V207.56C184.385 205.904 183.857 204.536 182.801 203.456C181.745 202.376 180.365 201.824 178.661 201.8H178.625C176.921 201.8 175.541 202.352 174.485 203.456C173.429 204.536 172.901 205.904 172.901 207.56V207.596C172.901 209.204 173.429 210.548 174.485 211.628C175.541 212.708 176.921 213.248 178.625 213.248ZM206.509 197.336H212.485L205.861 218H198.373L191.605 197.336H197.617L202.117 212.672L206.509 197.336ZM223.415 196.652C226.271 196.652 228.551 197.324 230.255 198.668C231.983 199.988 232.847 202.052 232.847 204.86V217.136C229.679 217.952 226.475 218.36 223.235 218.36C220.019 218.36 217.571 217.76 215.891 216.56C214.235 215.336 213.407 213.548 213.407 211.196C213.407 206.684 216.479 204.428 222.623 204.428C223.919 204.428 225.455 204.524 227.231 204.716C227.183 203.732 226.715 202.976 225.827 202.448C224.939 201.92 223.715 201.656 222.155 201.656C219.563 201.656 217.199 202.088 215.063 202.952L216.431 197.732C218.279 197.012 220.607 196.652 223.415 196.652ZM219.131 211.088C219.131 212.624 220.523 213.392 223.307 213.392C225.035 213.392 226.343 213.272 227.231 213.032V209.252C225.935 209.036 224.627 208.928 223.307 208.928C220.523 208.928 219.131 209.648 219.131 211.088ZM250.875 188.804H256.563V217.244C253.443 218.3 250.467 218.828 247.635 218.828C244.083 218.828 241.287 217.856 239.247 215.912C237.231 213.944 236.223 211.256 236.223 207.848V207.812C236.223 204.404 237.243 201.74 239.283 199.82C241.347 197.876 244.131 196.904 247.635 196.904C248.643 196.904 249.723 196.976 250.875 197.12V188.804ZM247.491 213.68C248.859 213.68 249.987 213.608 250.875 213.464V202.448C249.555 202.184 248.415 202.052 247.455 202.052C245.655 202.052 244.239 202.58 243.207 203.636C242.199 204.692 241.695 206.084 241.695 207.812V207.884C241.695 209.636 242.211 211.04 243.243 212.096C244.299 213.152 245.715 213.68 247.491 213.68ZM271.752 218.504C268.512 218.504 265.812 217.484 263.652 215.444C261.492 213.38 260.4 210.764 260.376 207.596V207.56C260.376 204.368 261.456 201.728 263.616 199.64C265.8 197.552 268.512 196.508 271.752 196.508H271.788C275.1 196.532 277.848 197.588 280.032 199.676C282.216 201.74 283.308 204.368 283.308 207.56V207.596C283.308 210.764 282.216 213.368 280.032 215.408C277.872 217.448 275.124 218.48 271.788 218.504H271.752ZM271.824 213.248H271.86C273.564 213.248 274.944 212.708 276 211.628C277.056 210.548 277.584 209.204 277.584 207.596V207.56C277.584 205.904 277.056 204.536 276 203.456C274.944 202.376 273.564 201.824 271.86 201.8H271.824C270.12 201.8 268.74 202.352 267.684 203.456C266.628 204.536 266.1 205.904 266.1 207.56V207.596C266.1 209.204 266.628 210.548 267.684 211.628C268.74 212.708 270.12 213.248 271.824 213.248ZM287.928 208.892V188.804H293.616V208.892H287.928ZM290.844 218.324C289.908 218.324 289.116 218.072 288.468 217.568C287.844 217.04 287.532 216.296 287.532 215.336C287.532 214.472 287.844 213.776 288.468 213.248C289.092 212.696 289.884 212.42 290.844 212.42C291.756 212.42 292.524 212.696 293.148 213.248C293.796 213.776 294.12 214.472 294.12 215.336C294.12 216.296 293.796 217.04 293.148 217.568C292.524 218.072 291.756 218.324 290.844 218.324Z" fill="black"/>
<path d="M56 536.5H337C349.426 536.5 359.5 546.574 359.5 559V578C359.5 590.426 349.426 600.5 337 600.5H56C43.5736 600.5 33.5 590.426 33.5 578V559C33.5 546.574 43.5736 536.5 56 536.5Z" stroke="#767676"/>
<path d="M120 750C120 737.297 130.297 727 143 727H254C266.703 727 277 737.297 277 750V752C277 764.703 266.703 775 254 775H143C130.297 775 120 764.703 120 752V750Z" fill="#D3FB16"/>
<path d="M78.7907 563H75.7307V552.89H78.7307C80.2207 552.89 81.4407 553.355 82.3907 554.285C83.3507 555.205 83.8307 556.4 83.8307 557.87C83.8307 559.33 83.3857 560.55 82.4957 561.53C81.6157 562.51 80.3807 563 78.7907 563ZM78.7157 553.97H76.9607V561.935H78.7757C80.0257 561.935 80.9707 561.55 81.6107 560.78C82.2507 560 82.5707 559.03 82.5707 557.87C82.5707 556.77 82.2107 555.845 81.4907 555.095C80.7807 554.345 79.8557 553.97 78.7157 553.97ZM87.9127 562.085C88.4527 562.085 88.8827 561.935 89.2027 561.635C89.5227 561.325 89.6827 560.935 89.6827 560.465V559.49H88.3627C87.7227 559.49 87.2427 559.615 86.9227 559.865C86.6027 560.115 86.4427 560.43 86.4427 560.81C86.4427 561.19 86.5677 561.5 86.8177 561.74C87.0677 561.97 87.4327 562.085 87.9127 562.085ZM89.6977 562.1C89.3077 562.75 88.5977 563.075 87.5677 563.075C86.8577 563.075 86.2827 562.865 85.8427 562.445C85.4127 562.025 85.1977 561.495 85.1977 560.855C85.1977 560.125 85.4727 559.56 86.0227 559.16C86.5827 558.75 87.3427 558.545 88.3027 558.545H89.6827V558.155C89.6827 557.555 89.5477 557.105 89.2777 556.805C89.0077 556.495 88.5527 556.34 87.9127 556.34C87.1027 556.34 86.3827 556.555 85.7527 556.985V555.8C86.3227 555.45 87.0727 555.275 88.0027 555.275C89.9127 555.275 90.8677 556.245 90.8677 558.185V563H89.6977V562.1ZM97.8026 565.955H96.6326V555.395H97.8026V556.55C98.3326 555.7 99.1176 555.275 100.158 555.275C101.168 555.275 101.958 555.645 102.528 556.385C103.108 557.115 103.398 558.03 103.398 559.13C103.398 560.3 103.093 561.26 102.483 562.01C101.883 562.75 101.098 563.12 100.128 563.12C99.1276 563.12 98.3526 562.695 97.8026 561.845V565.955ZM97.8026 559.205C97.8026 560.175 98.0276 560.89 98.4776 561.35C98.9276 561.81 99.4276 562.04 99.9776 562.04C100.618 562.04 101.143 561.79 101.553 561.29C101.963 560.78 102.168 560.06 102.168 559.13C102.168 558.3 101.968 557.63 101.568 557.12C101.168 556.61 100.663 556.355 100.053 556.355C99.4426 556.355 98.9126 556.58 98.4626 557.03C98.0226 557.47 97.8026 558.195 97.8026 559.205ZM106.313 563H105.128L105.143 555.395H106.313V556.73C106.713 555.79 107.403 555.32 108.383 555.32C108.563 555.32 108.703 555.33 108.803 555.35V556.52C108.593 556.45 108.378 556.415 108.158 556.415C107.628 556.415 107.188 556.66 106.838 557.15C106.488 557.64 106.313 558.205 106.313 558.845V563ZM116.726 559.22C116.726 560.35 116.406 561.285 115.766 562.025C115.126 562.765 114.246 563.135 113.126 563.135C112.036 563.135 111.171 562.77 110.531 562.04C109.901 561.3 109.586 560.37 109.586 559.25C109.586 558.12 109.911 557.18 110.561 556.43C111.221 555.67 112.076 555.29 113.126 555.29C114.276 555.29 115.161 555.66 115.781 556.4C116.411 557.14 116.726 558.08 116.726 559.22ZM110.816 559.235C110.816 560.025 111.026 560.7 111.446 561.26C111.866 561.81 112.426 562.085 113.126 562.085C113.886 562.085 114.471 561.815 114.881 561.275C115.291 560.725 115.496 560.045 115.496 559.235C115.496 558.395 115.301 557.705 114.911 557.165C114.521 556.615 113.926 556.34 113.126 556.34C112.406 556.34 111.841 556.62 111.431 557.18C111.021 557.74 110.816 558.425 110.816 559.235ZM113.846 554.6H112.811L114.296 552.26H115.706L113.846 554.6ZM119.044 563H117.739L120.289 559.1L117.889 555.38H119.254L120.979 558.23L122.719 555.38H124.069L121.609 559.115L124.159 563H122.794L120.949 560L119.044 563ZM126.867 563H125.682V555.395H126.867V563ZM126.822 552.455C126.972 552.605 127.047 552.79 127.047 553.01C127.047 553.23 126.972 553.415 126.822 553.565C126.672 553.705 126.487 553.775 126.267 553.775C126.047 553.775 125.862 553.705 125.712 553.565C125.572 553.415 125.502 553.23 125.502 553.01C125.502 552.79 125.572 552.605 125.712 552.455C125.862 552.305 126.047 552.23 126.267 552.23C126.487 552.23 126.672 552.305 126.822 552.455ZM139.293 563H138.108V558.08C138.108 556.93 137.623 556.355 136.653 556.355C136.173 556.355 135.743 556.575 135.363 557.015C134.983 557.445 134.793 558.055 134.793 558.845V563H133.608V558.08C133.608 556.93 133.123 556.355 132.153 556.355C131.673 556.355 131.243 556.575 130.863 557.015C130.483 557.445 130.293 558.055 130.293 558.845V563H129.123V555.395H130.293V556.625C130.713 555.735 131.428 555.29 132.438 555.29C133.608 555.29 134.348 555.785 134.658 556.775C134.878 556.295 135.183 555.93 135.573 555.68C135.973 555.42 136.418 555.29 136.908 555.29C137.698 555.29 138.293 555.515 138.693 555.965C139.093 556.415 139.293 557.02 139.293 557.78V563ZM143.723 562.085C144.263 562.085 144.693 561.935 145.013 561.635C145.333 561.325 145.493 560.935 145.493 560.465V559.49H144.173C143.533 559.49 143.053 559.615 142.733 559.865C142.413 560.115 142.253 560.43 142.253 560.81C142.253 561.19 142.378 561.5 142.628 561.74C142.878 561.97 143.243 562.085 143.723 562.085ZM145.508 562.1C145.118 562.75 144.408 563.075 143.378 563.075C142.668 563.075 142.093 562.865 141.653 562.445C141.223 562.025 141.008 561.495 141.008 560.855C141.008 560.125 141.283 559.56 141.833 559.16C142.393 558.75 143.153 558.545 144.113 558.545H145.493V558.155C145.493 557.555 145.358 557.105 145.088 556.805C144.818 556.495 144.363 556.34 143.723 556.34C142.913 556.34 142.193 556.555 141.563 556.985V555.8C142.133 555.45 142.883 555.275 143.813 555.275C145.723 555.275 146.678 556.245 146.678 558.185V563H145.508V562.1ZM155.833 563H154.378L151.723 555.395H152.953L154.003 558.605L155.113 562.07C155.203 561.64 155.578 560.485 156.238 558.605L157.318 555.395H158.548L155.833 563ZM165.566 562.61C164.976 562.92 164.256 563.075 163.406 563.075C162.256 563.075 161.326 562.725 160.616 562.025C159.916 561.315 159.566 560.38 159.566 559.22C159.566 558.01 159.881 557.055 160.511 556.355C161.141 555.655 161.951 555.305 162.941 555.305C163.891 555.305 164.646 555.61 165.206 556.22C165.766 556.83 166.046 557.695 166.046 558.815C166.046 559.135 166.021 559.43 165.971 559.7H160.781C160.871 560.45 161.156 561.025 161.636 561.425C162.116 561.825 162.746 562.025 163.526 562.025C164.376 562.025 165.056 561.85 165.566 561.5V562.61ZM162.941 556.34C162.371 556.34 161.886 556.545 161.486 556.955C161.086 557.365 160.851 557.95 160.781 558.71H164.861V558.41C164.861 557.78 164.691 557.28 164.351 556.91C164.011 556.53 163.541 556.34 162.941 556.34ZM172.893 563H167.418V562.07L171.273 556.445H167.568V555.395H172.683V556.265L168.783 561.935H172.893V563ZM179.092 559.13C179.092 560.06 179.297 560.78 179.707 561.29C180.117 561.79 180.642 562.04 181.282 562.04C181.832 562.04 182.327 561.815 182.767 561.365C183.217 560.905 183.442 560.185 183.442 559.205C183.442 558.195 183.222 557.47 182.782 557.03C182.342 556.58 181.817 556.355 181.207 556.355C180.597 556.355 180.092 556.61 179.692 557.12C179.292 557.63 179.092 558.3 179.092 559.13ZM184.627 565.955H183.442V561.86C182.892 562.7 182.122 563.12 181.132 563.12C180.162 563.12 179.372 562.75 178.762 562.01C178.162 561.26 177.862 560.3 177.862 559.13C177.862 558.03 178.152 557.115 178.732 556.385C179.312 555.645 180.107 555.275 181.117 555.275C182.127 555.275 182.902 555.69 183.442 556.52V555.395H184.627V565.955ZM192.733 563H191.548V561.68C191.148 562.62 190.353 563.09 189.163 563.09C188.413 563.09 187.818 562.87 187.378 562.43C186.948 561.98 186.733 561.38 186.733 560.63V555.395H187.918V560.33C187.918 560.88 188.058 561.3 188.338 561.59C188.618 561.88 188.998 562.025 189.478 562.025C190.108 562.025 190.608 561.805 190.978 561.365C191.358 560.925 191.548 560.33 191.548 559.58V555.395H192.733V563ZM200.474 562.61C199.884 562.92 199.164 563.075 198.314 563.075C197.164 563.075 196.234 562.725 195.524 562.025C194.824 561.315 194.474 560.38 194.474 559.22C194.474 558.01 194.789 557.055 195.419 556.355C196.049 555.655 196.859 555.305 197.849 555.305C198.799 555.305 199.554 555.61 200.114 556.22C200.674 556.83 200.954 557.695 200.954 558.815C200.954 559.135 200.929 559.43 200.879 559.7H195.689C195.779 560.45 196.064 561.025 196.544 561.425C197.024 561.825 197.654 562.025 198.434 562.025C199.284 562.025 199.964 561.85 200.474 561.5V562.61ZM197.849 556.34C197.279 556.34 196.794 556.545 196.394 556.955C195.994 557.365 195.759 557.95 195.689 558.71H199.769V558.41C199.769 557.78 199.599 557.28 199.259 556.91C198.919 556.53 198.449 556.34 197.849 556.34ZM209.948 556.355H208.268V563H207.083V556.355H205.778V555.395H207.083V554.69C207.083 553.95 207.278 553.365 207.668 552.935C208.068 552.505 208.618 552.29 209.318 552.29C209.558 552.29 209.803 552.325 210.053 552.395V553.475C209.813 553.395 209.583 553.355 209.363 553.355C209.043 553.355 208.778 553.465 208.568 553.685C208.368 553.905 208.268 554.245 208.268 554.705V555.395H209.948V556.355ZM212.604 563H211.419V555.395H212.604V563ZM212.559 552.455C212.709 552.605 212.784 552.79 212.784 553.01C212.784 553.23 212.709 553.415 212.559 553.565C212.409 553.705 212.224 553.775 212.004 553.775C211.784 553.775 211.599 553.705 211.449 553.565C211.309 553.415 211.239 553.23 211.239 553.01C211.239 552.79 211.309 552.605 211.449 552.455C211.599 552.305 211.784 552.23 212.004 552.23C212.224 552.23 212.409 552.305 212.559 552.455ZM219.9 563H214.425V562.07L218.28 556.445H214.575V555.395H219.69V556.265L215.79 561.935H219.9V563ZM227.207 562.61C226.617 562.92 225.897 563.075 225.047 563.075C223.897 563.075 222.967 562.725 222.257 562.025C221.557 561.315 221.207 560.38 221.207 559.22C221.207 558.01 221.522 557.055 222.152 556.355C222.782 555.655 223.592 555.305 224.582 555.305C225.532 555.305 226.287 555.61 226.847 556.22C227.407 556.83 227.687 557.695 227.687 558.815C227.687 559.135 227.662 559.43 227.612 559.7H222.422C222.512 560.45 222.797 561.025 223.277 561.425C223.757 561.825 224.387 562.025 225.167 562.025C226.017 562.025 226.697 561.85 227.207 561.5V562.61ZM224.582 556.34C224.012 556.34 223.527 556.545 223.127 556.955C222.727 557.365 222.492 557.95 222.422 558.71H226.502V558.41C226.502 557.78 226.332 557.28 225.992 556.91C225.652 556.53 225.182 556.34 224.582 556.34ZM230.664 563H229.479L229.494 555.395H230.664V556.73C231.064 555.79 231.754 555.32 232.734 555.32C232.914 555.32 233.054 555.33 233.154 555.35V556.52C232.944 556.45 232.729 556.415 232.509 556.415C231.979 556.415 231.539 556.66 231.189 557.15C230.839 557.64 230.664 558.205 230.664 558.845V563ZM243.959 563H242.774V561.68C242.374 562.62 241.579 563.09 240.389 563.09C239.639 563.09 239.044 562.87 238.604 562.43C238.174 561.98 237.959 561.38 237.959 560.63V555.395H239.144V560.33C239.144 560.88 239.284 561.3 239.564 561.59C239.844 561.88 240.224 562.025 240.704 562.025C241.334 562.025 241.834 561.805 242.204 561.365C242.584 560.925 242.774 560.33 242.774 559.58V555.395H243.959V563ZM256.319 563H255.134V558.08C255.134 556.93 254.649 556.355 253.679 556.355C253.199 556.355 252.769 556.575 252.389 557.015C252.009 557.445 251.819 558.055 251.819 558.845V563H250.634V558.08C250.634 556.93 250.149 556.355 249.179 556.355C248.699 556.355 248.269 556.575 247.889 557.015C247.509 557.445 247.319 558.055 247.319 558.845V563H246.149V555.395H247.319V556.625C247.739 555.735 248.454 555.29 249.464 555.29C250.634 555.29 251.374 555.785 251.684 556.775C251.904 556.295 252.209 555.93 252.599 555.68C252.999 555.42 253.444 555.29 253.934 555.29C254.724 555.29 255.319 555.515 255.719 555.965C256.119 556.415 256.319 557.02 256.319 557.78V563ZM260.75 562.085C261.29 562.085 261.72 561.935 262.04 561.635C262.36 561.325 262.52 560.935 262.52 560.465V559.49H261.2C260.56 559.49 260.08 559.615 259.76 559.865C259.44 560.115 259.28 560.43 259.28 560.81C259.28 561.19 259.405 561.5 259.655 561.74C259.905 561.97 260.27 562.085 260.75 562.085ZM262.535 562.1C262.145 562.75 261.435 563.075 260.405 563.075C259.695 563.075 259.12 562.865 258.68 562.445C258.25 562.025 258.035 561.495 258.035 560.855C258.035 560.125 258.31 559.56 258.86 559.16C259.42 558.75 260.18 558.545 261.14 558.545H262.52V558.155C262.52 557.555 262.385 557.105 262.115 556.805C261.845 556.495 261.39 556.34 260.75 556.34C259.94 556.34 259.22 556.555 258.59 556.985V555.8C259.16 555.45 259.91 555.275 260.84 555.275C262.75 555.275 263.705 556.245 263.705 558.185V563H262.535V562.1ZM270.64 563H269.455L269.47 555.395H270.64V556.73C271.04 555.79 271.73 555.32 272.71 555.32C272.89 555.32 273.03 555.33 273.13 555.35V556.52C272.92 556.45 272.705 556.415 272.485 556.415C271.955 556.415 271.515 556.66 271.165 557.15C270.815 557.64 270.64 558.205 270.64 558.845V563ZM279.912 562.61C279.322 562.92 278.602 563.075 277.752 563.075C276.602 563.075 275.672 562.725 274.962 562.025C274.262 561.315 273.912 560.38 273.912 559.22C273.912 558.01 274.227 557.055 274.857 556.355C275.487 555.655 276.297 555.305 277.287 555.305C278.237 555.305 278.992 555.61 279.552 556.22C280.112 556.83 280.392 557.695 280.392 558.815C280.392 559.135 280.367 559.43 280.317 559.7H275.127C275.217 560.45 275.502 561.025 275.982 561.425C276.462 561.825 277.092 562.025 277.872 562.025C278.722 562.025 279.402 561.85 279.912 561.5V562.61ZM277.287 556.34C276.717 556.34 276.232 556.545 275.832 556.955C275.432 557.365 275.197 557.95 275.127 558.71H279.207V558.41C279.207 557.78 279.037 557.28 278.697 556.91C278.357 556.53 277.887 556.34 277.287 556.34ZM287.434 562.73C286.954 563.02 286.364 563.165 285.664 563.165C284.464 563.165 283.509 562.785 282.799 562.025C282.099 561.255 281.749 560.32 281.749 559.22C281.749 558.14 282.099 557.21 282.799 556.43C283.509 555.65 284.474 555.26 285.694 555.26C286.344 555.26 286.924 555.4 287.434 555.68V556.805C286.974 556.495 286.434 556.34 285.814 556.34C284.954 556.34 284.264 556.62 283.744 557.18C283.234 557.73 282.979 558.415 282.979 559.235C282.989 560.055 283.239 560.74 283.729 561.29C284.219 561.83 284.914 562.1 285.814 562.1C286.394 562.1 286.934 561.935 287.434 561.605V562.73ZM291.585 562.085C292.125 562.085 292.555 561.935 292.875 561.635C293.195 561.325 293.355 560.935 293.355 560.465V559.49H292.035C291.395 559.49 290.915 559.615 290.595 559.865C290.275 560.115 290.115 560.43 290.115 560.81C290.115 561.19 290.24 561.5 290.49 561.74C290.74 561.97 291.105 562.085 291.585 562.085ZM293.37 562.1C292.98 562.75 292.27 563.075 291.24 563.075C290.53 563.075 289.955 562.865 289.515 562.445C289.085 562.025 288.87 561.495 288.87 560.855C288.87 560.125 289.145 559.56 289.695 559.16C290.255 558.75 291.015 558.545 291.975 558.545H293.355V558.155C293.355 557.555 293.22 557.105 292.95 556.805C292.68 556.495 292.225 556.34 291.585 556.34C290.775 556.34 290.055 556.555 289.425 556.985V555.8C289.995 555.45 290.745 555.275 291.675 555.275C293.585 555.275 294.54 556.245 294.54 558.185V563H293.37V562.1ZM297.812 563H296.627L296.642 555.395H297.812V556.73C298.212 555.79 298.902 555.32 299.882 555.32C300.062 555.32 300.202 555.33 300.302 555.35V556.52C300.092 556.45 299.877 556.415 299.657 556.415C299.127 556.415 298.687 556.66 298.337 557.15C297.987 557.64 297.812 558.205 297.812 558.845V563ZM307.67 562.385C307.67 563.545 307.35 564.415 306.71 564.995C306.07 565.585 305.245 565.88 304.235 565.88C303.315 565.88 302.53 565.725 301.88 565.415V564.23C302.52 564.6 303.27 564.785 304.13 564.785C304.86 564.785 305.435 564.59 305.855 564.2C306.275 563.81 306.485 563.2 306.485 562.37V561.515C305.985 562.375 305.24 562.805 304.25 562.805C303.38 562.805 302.635 562.485 302.015 561.845C301.405 561.205 301.1 560.315 301.1 559.175C301.1 558.045 301.385 557.115 301.955 556.385C302.525 555.655 303.27 555.29 304.19 555.29C305.23 555.29 305.995 555.745 306.485 556.655V555.395H307.67V562.385ZM302.33 559.145C302.33 559.995 302.54 560.645 302.96 561.095C303.38 561.535 303.855 561.755 304.385 561.755C304.935 561.755 305.42 561.545 305.84 561.125C306.27 560.695 306.485 560.06 306.485 559.22C306.485 558.25 306.28 557.53 305.87 557.06C305.46 556.59 304.985 556.355 304.445 556.355C303.795 556.355 303.28 556.615 302.9 557.135C302.52 557.645 302.33 558.315 302.33 559.145ZM312.092 562.085C312.632 562.085 313.062 561.935 313.382 561.635C313.702 561.325 313.862 560.935 313.862 560.465V559.49H312.542C311.902 559.49 311.422 559.615 311.102 559.865C310.782 560.115 310.622 560.43 310.622 560.81C310.622 561.19 310.747 561.5 310.997 561.74C311.247 561.97 311.612 562.085 312.092 562.085ZM313.877 562.1C313.487 562.75 312.777 563.075 311.747 563.075C311.037 563.075 310.462 562.865 310.022 562.445C309.592 562.025 309.377 561.495 309.377 560.855C309.377 560.125 309.652 559.56 310.202 559.16C310.762 558.75 311.522 558.545 312.482 558.545H313.862V558.155C313.862 557.555 313.727 557.105 313.457 556.805C313.187 556.495 312.732 556.34 312.092 556.34C311.282 556.34 310.562 556.555 309.932 556.985V555.8C310.502 555.45 311.252 555.275 312.182 555.275C314.092 555.275 315.047 556.245 315.047 558.185V563H313.877V562.1ZM316.97 564.845H315.935L317.33 561.485H318.905L316.97 564.845ZM51.5565 582H49.7565V571.395H51.5565V582ZM59.383 581.58C58.853 581.91 58.088 582.075 57.088 582.075C55.878 582.075 54.923 581.715 54.223 580.995C53.523 580.275 53.173 579.345 53.173 578.205C53.173 576.995 53.503 576.045 54.163 575.355C54.823 574.665 55.648 574.32 56.638 574.32C57.628 574.32 58.413 574.62 58.993 575.22C59.573 575.82 59.863 576.695 59.863 577.845C59.863 578.125 59.828 578.485 59.758 578.925H54.988C55.118 579.475 55.388 579.895 55.798 580.185C56.218 580.475 56.738 580.62 57.358 580.62C58.158 580.62 58.833 580.42 59.383 580.02V581.58ZM56.683 575.73C56.253 575.73 55.878 575.89 55.558 576.21C55.248 576.52 55.048 576.975 54.958 577.575H58.153V577.35C58.133 576.86 57.998 576.47 57.748 576.18C57.508 575.88 57.153 575.73 56.683 575.73ZM72.3025 582H70.4875V577.335C70.4875 576.315 70.0975 575.805 69.3175 575.805C68.9275 575.805 68.5775 575.975 68.2675 576.315C67.9675 576.655 67.8175 577.19 67.8175 577.92V582H66.0025V577.335C66.0025 576.315 65.6125 575.805 64.8325 575.805C64.4425 575.805 64.0925 575.975 63.7825 576.315C63.4725 576.655 63.3175 577.19 63.3175 577.92V582H61.5175V574.395H63.3175V575.595C63.7475 574.735 64.4625 574.305 65.4625 574.305C66.5725 574.305 67.2925 574.785 67.6225 575.745C67.8225 575.285 68.1225 574.93 68.5225 574.68C68.9225 574.43 69.3775 574.305 69.8875 574.305C70.6575 574.305 71.2525 574.54 71.6725 575.01C72.0925 575.47 72.3025 576.13 72.3025 576.99V582ZM75.9891 582H74.1741V571.395H75.9891V575.55C76.5191 574.71 77.2791 574.29 78.2691 574.29C79.2191 574.29 79.9991 574.645 80.6091 575.355C81.2291 576.055 81.5391 577.005 81.5391 578.205C81.5391 579.285 81.2441 580.205 80.6541 580.965C80.0741 581.725 79.2841 582.105 78.2841 582.105C77.2841 582.105 76.5191 581.68 75.9891 580.83V582ZM75.9891 578.13C75.9891 578.92 76.1691 579.525 76.5291 579.945C76.8891 580.355 77.3391 580.56 77.8791 580.56C78.3991 580.56 78.8341 580.345 79.1841 579.915C79.5341 579.485 79.7091 578.925 79.7091 578.235C79.7091 577.475 79.5291 576.885 79.1691 576.465C78.8191 576.035 78.3841 575.82 77.8641 575.82C77.3741 575.82 76.9391 576.015 76.5591 576.405C76.1791 576.785 75.9891 577.36 75.9891 578.13ZM84.88 582H83.065L83.08 574.395H84.88V575.745C85.23 574.805 85.87 574.335 86.8 574.335C87.01 574.335 87.18 574.35 87.31 574.38V576.12C87.08 576.02 86.825 575.97 86.545 575.97C86.055 575.97 85.655 576.17 85.345 576.57C85.035 576.97 84.88 577.47 84.88 578.07V582ZM90.9781 580.725C91.3781 580.725 91.6881 580.61 91.9081 580.38C92.1381 580.14 92.2531 579.83 92.2531 579.45V578.73H91.3231C90.8531 578.73 90.4931 578.83 90.2431 579.03C89.9931 579.22 89.8681 579.465 89.8681 579.765C89.8681 580.405 90.2381 580.725 90.9781 580.725ZM92.3281 581.085C91.9781 581.735 91.3181 582.06 90.3481 582.06C89.6281 582.06 89.0531 581.85 88.6231 581.43C88.2031 581.01 87.9931 580.48 87.9931 579.84C87.9931 579.12 88.2631 578.555 88.8031 578.145C89.3431 577.735 90.1231 577.53 91.1431 577.53H92.2531V577.065C92.2531 576.645 92.1431 576.325 91.9231 576.105C91.7031 575.885 91.3281 575.775 90.7981 575.775C89.9881 575.775 89.2431 576 88.5631 576.45V574.785C89.1331 574.435 89.9531 574.26 91.0231 574.26C93.0831 574.26 94.1131 575.22 94.1131 577.14V582H92.3281V581.085ZM97.7706 582H95.9556L95.9706 574.395H97.7706V575.745C98.1206 574.805 98.7606 574.335 99.6906 574.335C99.9006 574.335 100.071 574.35 100.201 574.38V576.12C99.9706 576.02 99.7156 575.97 99.4356 575.97C98.9456 575.97 98.5456 576.17 98.2356 576.57C97.9256 576.97 97.7706 577.47 97.7706 578.07V582ZM107.064 581.58C106.534 581.91 105.769 582.075 104.769 582.075C103.559 582.075 102.604 581.715 101.904 580.995C101.204 580.275 100.854 579.345 100.854 578.205C100.854 576.995 101.184 576.045 101.844 575.355C102.504 574.665 103.329 574.32 104.319 574.32C105.309 574.32 106.094 574.62 106.674 575.22C107.254 575.82 107.544 576.695 107.544 577.845C107.544 578.125 107.509 578.485 107.439 578.925H102.669C102.799 579.475 103.069 579.895 103.479 580.185C103.899 580.475 104.419 580.62 105.039 580.62C105.839 580.62 106.514 580.42 107.064 580.02V581.58ZM104.364 575.73C103.934 575.73 103.559 575.89 103.239 576.21C102.929 576.52 102.729 576.975 102.639 577.575H105.834V577.35C105.814 576.86 105.679 576.47 105.429 576.18C105.189 575.88 104.834 575.73 104.364 575.73ZM119.983 582H118.168V577.335C118.168 576.315 117.778 575.805 116.998 575.805C116.608 575.805 116.258 575.975 115.948 576.315C115.648 576.655 115.498 577.19 115.498 577.92V582H113.683V577.335C113.683 576.315 113.293 575.805 112.513 575.805C112.123 575.805 111.773 575.975 111.463 576.315C111.153 576.655 110.998 577.19 110.998 577.92V582H109.198V574.395H110.998V575.595C111.428 574.735 112.143 574.305 113.143 574.305C114.253 574.305 114.973 574.785 115.303 575.745C115.503 575.285 115.803 574.93 116.203 574.68C116.603 574.43 117.058 574.305 117.568 574.305C118.338 574.305 118.933 574.54 119.353 575.01C119.773 575.47 119.983 576.13 119.983 576.99V582ZM128.77 578.175C128.77 579.325 128.445 580.27 127.795 581.01C127.155 581.75 126.255 582.12 125.095 582.12C123.945 582.12 123.045 581.76 122.395 581.04C121.755 580.32 121.435 579.4 121.435 578.28C121.435 577.12 121.77 576.165 122.44 575.415C123.11 574.655 123.995 574.275 125.095 574.275C126.265 574.275 127.17 574.645 127.81 575.385C128.45 576.115 128.77 577.045 128.77 578.175ZM123.325 578.22C123.325 578.92 123.48 579.505 123.79 579.975C124.1 580.445 124.54 580.68 125.11 580.68C125.7 580.68 126.145 580.45 126.445 579.99C126.745 579.53 126.895 578.945 126.895 578.235C126.895 577.505 126.75 576.91 126.46 576.45C126.17 575.98 125.715 575.745 125.095 575.745C124.525 575.745 124.085 575.98 123.775 576.45C123.475 576.92 123.325 577.51 123.325 578.22ZM135.286 579.81C135.286 580.52 135.031 581.075 134.521 581.475C134.011 581.875 133.331 582.075 132.481 582.075C131.541 582.075 130.781 581.92 130.201 581.61V579.96C130.871 580.41 131.596 580.635 132.376 580.635C132.706 580.635 132.961 580.575 133.141 580.455C133.331 580.325 133.426 580.15 133.426 579.93C133.426 579.8 133.396 579.685 133.336 579.585C133.276 579.475 133.161 579.37 132.991 579.27C132.821 579.17 132.686 579.1 132.586 579.06C132.496 579.01 132.311 578.925 132.031 578.805C132.001 578.795 131.976 578.785 131.956 578.775C131.946 578.765 131.926 578.755 131.896 578.745C131.866 578.735 131.841 578.725 131.821 578.715C130.711 578.215 130.156 577.495 130.156 576.555C130.156 575.855 130.421 575.305 130.951 574.905C131.481 574.505 132.146 574.305 132.946 574.305C133.716 574.305 134.356 574.415 134.866 574.635V576.225C134.366 575.925 133.741 575.775 132.991 575.775C132.681 575.775 132.436 575.845 132.256 575.985C132.086 576.115 132.001 576.285 132.001 576.495C132.001 576.575 132.011 576.65 132.031 576.72C132.061 576.79 132.106 576.86 132.166 576.93C132.236 576.99 132.301 577.045 132.361 577.095C132.421 577.145 132.506 577.2 132.616 577.26C132.726 577.31 132.821 577.355 132.901 577.395C132.981 577.435 133.091 577.485 133.231 577.545C133.371 577.605 133.481 577.655 133.561 577.695C134.091 577.955 134.511 578.245 134.821 578.565C135.131 578.885 135.286 579.3 135.286 579.81ZM141.883 578.235C141.883 578.925 142.058 579.485 142.408 579.915C142.758 580.345 143.193 580.56 143.713 580.56C144.253 580.56 144.703 580.355 145.063 579.945C145.423 579.525 145.603 578.92 145.603 578.13C145.603 577.36 145.413 576.785 145.033 576.405C144.653 576.015 144.218 575.82 143.728 575.82C143.208 575.82 142.768 576.035 142.408 576.465C142.058 576.885 141.883 577.475 141.883 578.235ZM147.403 582H145.603V580.815C145.083 581.675 144.313 582.105 143.293 582.105C142.293 582.105 141.498 581.725 140.908 580.965C140.328 580.205 140.038 579.285 140.038 578.205C140.038 577.005 140.343 576.055 140.953 575.355C141.573 574.645 142.363 574.29 143.323 574.29C144.313 574.29 145.073 574.715 145.603 575.565V571.395H147.403V582ZM156.28 578.175C156.28 579.325 155.955 580.27 155.305 581.01C154.665 581.75 153.765 582.12 152.605 582.12C151.455 582.12 150.555 581.76 149.905 581.04C149.265 580.32 148.945 579.4 148.945 578.28C148.945 577.12 149.28 576.165 149.95 575.415C150.62 574.655 151.505 574.275 152.605 574.275C153.775 574.275 154.68 574.645 155.32 575.385C155.96 576.115 156.28 577.045 156.28 578.175ZM150.835 578.22C150.835 578.92 150.99 579.505 151.3 579.975C151.61 580.445 152.05 580.68 152.62 580.68C153.21 580.68 153.655 580.45 153.955 579.99C154.255 579.53 154.405 578.945 154.405 578.235C154.405 577.505 154.26 576.91 153.97 576.45C153.68 575.98 153.225 575.745 152.605 575.745C152.035 575.745 151.595 575.98 151.285 576.45C150.985 576.92 150.835 577.51 150.835 578.22ZM166.517 579.81C166.517 580.52 166.262 581.075 165.752 581.475C165.242 581.875 164.562 582.075 163.712 582.075C162.772 582.075 162.012 581.92 161.432 581.61V579.96C162.102 580.41 162.827 580.635 163.607 580.635C163.937 580.635 164.192 580.575 164.372 580.455C164.562 580.325 164.657 580.15 164.657 579.93C164.657 579.8 164.627 579.685 164.567 579.585C164.507 579.475 164.392 579.37 164.222 579.27C164.052 579.17 163.917 579.1 163.817 579.06C163.727 579.01 163.542 578.925 163.262 578.805C163.232 578.795 163.207 578.785 163.187 578.775C163.177 578.765 163.157 578.755 163.127 578.745C163.097 578.735 163.072 578.725 163.052 578.715C161.942 578.215 161.387 577.495 161.387 576.555C161.387 575.855 161.652 575.305 162.182 574.905C162.712 574.505 163.377 574.305 164.177 574.305C164.947 574.305 165.587 574.415 166.097 574.635V576.225C165.597 575.925 164.972 575.775 164.222 575.775C163.912 575.775 163.667 575.845 163.487 575.985C163.317 576.115 163.232 576.285 163.232 576.495C163.232 576.575 163.242 576.65 163.262 576.72C163.292 576.79 163.337 576.86 163.397 576.93C163.467 576.99 163.532 577.045 163.592 577.095C163.652 577.145 163.737 577.2 163.847 577.26C163.957 577.31 164.052 577.355 164.132 577.395C164.212 577.435 164.322 577.485 164.462 577.545C164.602 577.605 164.712 577.655 164.792 577.695C165.322 577.955 165.742 578.245 166.052 578.565C166.362 578.885 166.517 579.3 166.517 579.81ZM173.758 581.58C173.228 581.91 172.463 582.075 171.463 582.075C170.253 582.075 169.298 581.715 168.598 580.995C167.898 580.275 167.548 579.345 167.548 578.205C167.548 576.995 167.878 576.045 168.538 575.355C169.198 574.665 170.023 574.32 171.013 574.32C172.003 574.32 172.788 574.62 173.368 575.22C173.948 575.82 174.238 576.695 174.238 577.845C174.238 578.125 174.203 578.485 174.133 578.925H169.363C169.493 579.475 169.763 579.895 170.173 580.185C170.593 580.475 171.113 580.62 171.733 580.62C172.533 580.62 173.208 580.42 173.758 580.02V581.58ZM171.058 575.73C170.628 575.73 170.253 575.89 169.933 576.21C169.623 576.52 169.423 576.975 169.333 577.575H172.528V577.35C172.508 576.86 172.373 576.47 172.123 576.18C171.883 575.88 171.528 575.73 171.058 575.73ZM182.417 582H180.602V580.755C180.202 581.635 179.422 582.075 178.262 582.075C177.492 582.075 176.892 581.855 176.462 581.415C176.032 580.975 175.817 580.35 175.817 579.54V574.395H177.617V579.12C177.617 579.6 177.732 579.965 177.962 580.215C178.202 580.465 178.527 580.59 178.937 580.59C179.457 580.59 179.862 580.415 180.152 580.065C180.452 579.715 180.602 579.185 180.602 578.475V574.395H182.417V582ZM193.6 581.67C193.07 581.98 192.41 582.135 191.62 582.135C190.45 582.135 189.5 581.765 188.77 581.025C188.05 580.285 187.69 579.35 187.69 578.22C187.7 577.11 188.06 576.175 188.77 575.415C189.49 574.655 190.47 574.275 191.71 574.275C192.45 574.275 193.08 574.415 193.6 574.695V576.285C193.1 575.965 192.53 575.805 191.89 575.805C191.19 575.805 190.625 576.025 190.195 576.465C189.765 576.905 189.545 577.49 189.535 578.22C189.555 578.94 189.77 579.52 190.18 579.96C190.6 580.4 191.165 580.62 191.875 580.62C192.495 580.62 193.07 580.45 193.6 580.11V581.67ZM197.751 580.725C198.151 580.725 198.461 580.61 198.681 580.38C198.911 580.14 199.026 579.83 199.026 579.45V578.73H198.096C197.626 578.73 197.266 578.83 197.016 579.03C196.766 579.22 196.641 579.465 196.641 579.765C196.641 580.405 197.011 580.725 197.751 580.725ZM199.101 581.085C198.751 581.735 198.091 582.06 197.121 582.06C196.401 582.06 195.826 581.85 195.396 581.43C194.976 581.01 194.766 580.48 194.766 579.84C194.766 579.12 195.036 578.555 195.576 578.145C196.116 577.735 196.896 577.53 197.916 577.53H199.026V577.065C199.026 576.645 198.916 576.325 198.696 576.105C198.476 575.885 198.101 575.775 197.571 575.775C196.761 575.775 196.016 576 195.336 576.45V574.785C195.906 574.435 196.726 574.26 197.796 574.26C199.856 574.26 200.886 575.22 200.886 577.14V582H199.101V581.085ZM204.543 582H202.728L202.743 574.395H204.543V575.745C204.893 574.805 205.533 574.335 206.463 574.335C206.673 574.335 206.843 574.35 206.973 574.38V576.12C206.743 576.02 206.488 575.97 206.208 575.97C205.718 575.97 205.318 576.17 205.008 576.57C204.698 576.97 204.543 577.47 204.543 578.07V582ZM209.831 582H208.016L208.031 574.395H209.831V575.745C210.181 574.805 210.821 574.335 211.751 574.335C211.961 574.335 212.131 574.35 212.261 574.38V576.12C212.031 576.02 211.776 575.97 211.496 575.97C211.006 575.97 210.606 576.17 210.296 576.57C209.986 576.97 209.831 577.47 209.831 578.07V582ZM220.249 578.175C220.249 579.325 219.924 580.27 219.274 581.01C218.634 581.75 217.734 582.12 216.574 582.12C215.424 582.12 214.524 581.76 213.874 581.04C213.234 580.32 212.914 579.4 212.914 578.28C212.914 577.12 213.249 576.165 213.919 575.415C214.589 574.655 215.474 574.275 216.574 574.275C217.744 574.275 218.649 574.645 219.289 575.385C219.929 576.115 220.249 577.045 220.249 578.175ZM214.804 578.22C214.804 578.92 214.959 579.505 215.269 579.975C215.579 580.445 216.019 580.68 216.589 580.68C217.179 580.68 217.624 580.45 217.924 579.99C218.224 579.53 218.374 578.945 218.374 578.235C218.374 577.505 218.229 576.91 217.939 576.45C217.649 575.98 217.194 575.745 216.574 575.745C216.004 575.745 215.564 575.98 215.254 576.45C214.954 576.92 214.804 577.51 214.804 578.22ZM228.131 580.725C228.531 580.725 228.841 580.61 229.061 580.38C229.291 580.14 229.406 579.83 229.406 579.45V578.73H228.476C228.006 578.73 227.646 578.83 227.396 579.03C227.146 579.22 227.021 579.465 227.021 579.765C227.021 580.405 227.391 580.725 228.131 580.725ZM229.481 581.085C229.131 581.735 228.471 582.06 227.501 582.06C226.781 582.06 226.206 581.85 225.776 581.43C225.356 581.01 225.146 580.48 225.146 579.84C225.146 579.12 225.416 578.555 225.956 578.145C226.496 577.735 227.276 577.53 228.296 577.53H229.406V577.065C229.406 576.645 229.296 576.325 229.076 576.105C228.856 575.885 228.481 575.775 227.951 575.775C227.141 575.775 226.396 576 225.716 576.45V574.785C226.286 574.435 227.106 574.26 228.176 574.26C230.236 574.26 231.266 575.22 231.266 577.14V582H229.481V581.085ZM239.649 582H237.834V580.755C237.434 581.635 236.654 582.075 235.494 582.075C234.724 582.075 234.124 581.855 233.694 581.415C233.264 580.975 233.049 580.35 233.049 579.54V574.395H234.849V579.12C234.849 579.6 234.964 579.965 235.194 580.215C235.434 580.465 235.759 580.59 236.169 580.59C236.689 580.59 237.094 580.415 237.384 580.065C237.684 579.715 237.834 579.185 237.834 578.475V574.395H239.649V582ZM245.805 581.82C245.455 581.99 245.005 582.075 244.455 582.075C242.815 582.075 241.995 581.245 241.995 579.585V575.745H240.855V574.395H241.995V572.565H243.795V574.395H245.685V575.745H243.795V579.615C243.795 579.935 243.88 580.18 244.05 580.35C244.22 580.51 244.455 580.59 244.755 580.59C245.135 580.59 245.485 580.485 245.805 580.275V581.82ZM254.219 578.175C254.219 579.325 253.894 580.27 253.244 581.01C252.604 581.75 251.704 582.12 250.544 582.12C249.394 582.12 248.494 581.76 247.844 581.04C247.204 580.32 246.884 579.4 246.884 578.28C246.884 577.12 247.219 576.165 247.889 575.415C248.559 574.655 249.444 574.275 250.544 574.275C251.714 574.275 252.619 574.645 253.259 575.385C253.899 576.115 254.219 577.045 254.219 578.175ZM248.774 578.22C248.774 578.92 248.929 579.505 249.239 579.975C249.549 580.445 249.989 580.68 250.559 580.68C251.149 580.68 251.594 580.45 251.894 579.99C252.194 579.53 252.344 578.945 252.344 578.235C252.344 577.505 252.199 576.91 251.909 576.45C251.619 575.98 251.164 575.745 250.544 575.745C249.974 575.745 249.534 575.98 249.224 576.45C248.924 576.92 248.774 577.51 248.774 578.22ZM266.555 582H264.74V577.335C264.74 576.315 264.35 575.805 263.57 575.805C263.18 575.805 262.83 575.975 262.52 576.315C262.22 576.655 262.07 577.19 262.07 577.92V582H260.255V577.335C260.255 576.315 259.865 575.805 259.085 575.805C258.695 575.805 258.345 575.975 258.035 576.315C257.725 576.655 257.57 577.19 257.57 577.92V582H255.77V574.395H257.57V575.595C258 574.735 258.715 574.305 259.715 574.305C260.825 574.305 261.545 574.785 261.875 575.745C262.075 575.285 262.375 574.93 262.775 574.68C263.175 574.43 263.63 574.305 264.14 574.305C264.91 574.305 265.505 574.54 265.925 575.01C266.345 575.47 266.555 576.13 266.555 576.99V582ZM271.022 580.725C271.422 580.725 271.732 580.61 271.952 580.38C272.182 580.14 272.297 579.83 272.297 579.45V578.73H271.367C270.897 578.73 270.537 578.83 270.287 579.03C270.037 579.22 269.912 579.465 269.912 579.765C269.912 580.405 270.282 580.725 271.022 580.725ZM272.372 581.085C272.022 581.735 271.362 582.06 270.392 582.06C269.672 582.06 269.097 581.85 268.667 581.43C268.247 581.01 268.037 580.48 268.037 579.84C268.037 579.12 268.307 578.555 268.847 578.145C269.387 577.735 270.167 577.53 271.187 577.53H272.297V577.065C272.297 576.645 272.187 576.325 271.967 576.105C271.747 575.885 271.372 575.775 270.842 575.775C270.032 575.775 269.287 576 268.607 576.45V574.785C269.177 574.435 269.997 574.26 271.067 574.26C273.127 574.26 274.157 575.22 274.157 577.14V582H272.372V581.085ZM280.215 581.82C279.865 581.99 279.415 582.075 278.865 582.075C277.225 582.075 276.405 581.245 276.405 579.585V575.745H275.265V574.395H276.405V572.565H278.205V574.395H280.095V575.745H278.205V579.615C278.205 579.935 278.29 580.18 278.46 580.35C278.63 580.51 278.865 580.59 279.165 580.59C279.545 580.59 279.895 580.485 280.215 580.275V581.82ZM283.573 582H281.773V574.395H283.573V582ZM283.753 572.115C283.753 572.425 283.648 572.685 283.438 572.895C283.228 573.105 282.973 573.21 282.673 573.21C282.373 573.21 282.118 573.105 281.908 572.895C281.698 572.685 281.593 572.425 281.593 572.115C281.593 571.815 281.698 571.56 281.908 571.35C282.118 571.14 282.373 571.035 282.673 571.035C282.973 571.035 283.228 571.14 283.438 571.35C283.648 571.56 283.753 571.815 283.753 572.115ZM291.1 581.67C290.57 581.98 289.91 582.135 289.12 582.135C287.95 582.135 287 581.765 286.27 581.025C285.55 580.285 285.19 579.35 285.19 578.22C285.2 577.11 285.56 576.175 286.27 575.415C286.99 574.655 287.97 574.275 289.21 574.275C289.95 574.275 290.58 574.415 291.1 574.695V576.285C290.6 575.965 290.03 575.805 289.39 575.805C288.69 575.805 288.125 576.025 287.695 576.465C287.265 576.905 287.045 577.49 287.035 578.22C287.055 578.94 287.27 579.52 287.68 579.96C288.1 580.4 288.665 580.62 289.375 580.62C289.995 580.62 290.57 580.45 291.1 580.11V581.67ZM295.251 580.725C295.651 580.725 295.961 580.61 296.181 580.38C296.411 580.14 296.526 579.83 296.526 579.45V578.73H295.596C295.126 578.73 294.766 578.83 294.516 579.03C294.266 579.22 294.141 579.465 294.141 579.765C294.141 580.405 294.511 580.725 295.251 580.725ZM296.601 581.085C296.251 581.735 295.591 582.06 294.621 582.06C293.901 582.06 293.326 581.85 292.896 581.43C292.476 581.01 292.266 580.48 292.266 579.84C292.266 579.12 292.536 578.555 293.076 578.145C293.616 577.735 294.396 577.53 295.416 577.53H296.526V577.065C296.526 576.645 296.416 576.325 296.196 576.105C295.976 575.885 295.601 575.775 295.071 575.775C294.261 575.775 293.516 576 292.836 576.45V574.785C293.406 574.435 294.226 574.26 295.296 574.26C297.356 574.26 298.386 575.22 298.386 577.14V582H296.601V581.085ZM311.028 582H309.213V577.335C309.213 576.315 308.823 575.805 308.043 575.805C307.653 575.805 307.303 575.975 306.993 576.315C306.693 576.655 306.543 577.19 306.543 577.92V582H304.728V577.335C304.728 576.315 304.338 575.805 303.558 575.805C303.168 575.805 302.818 575.975 302.508 576.315C302.198 576.655 302.043 577.19 302.043 577.92V582H300.243V574.395H302.043V575.595C302.473 574.735 303.188 574.305 304.188 574.305C305.298 574.305 306.018 574.785 306.348 575.745C306.548 575.285 306.848 574.93 307.248 574.68C307.648 574.43 308.103 574.305 308.613 574.305C309.383 574.305 309.978 574.54 310.398 575.01C310.818 575.47 311.028 576.13 311.028 576.99V582ZM318.69 581.58C318.16 581.91 317.395 582.075 316.395 582.075C315.185 582.075 314.23 581.715 313.53 580.995C312.83 580.275 312.48 579.345 312.48 578.205C312.48 576.995 312.81 576.045 313.47 575.355C314.13 574.665 314.955 574.32 315.945 574.32C316.935 574.32 317.72 574.62 318.3 575.22C318.88 575.82 319.17 576.695 319.17 577.845C319.17 578.125 319.135 578.485 319.065 578.925H314.295C314.425 579.475 314.695 579.895 315.105 580.185C315.525 580.475 316.045 580.62 316.665 580.62C317.465 580.62 318.14 580.42 318.69 580.02V581.58ZM315.99 575.73C315.56 575.73 315.185 575.89 314.865 576.21C314.555 576.52 314.355 576.975 314.265 577.575H317.46V577.35C317.44 576.86 317.305 576.47 317.055 576.18C316.815 575.88 316.46 575.73 315.99 575.73ZM327.424 582H325.624V577.32C325.624 576.82 325.504 576.445 325.264 576.195C325.024 575.935 324.699 575.805 324.289 575.805C323.819 575.805 323.424 575.99 323.104 576.36C322.784 576.72 322.624 577.24 322.624 577.92V582H320.824V574.395H322.624V575.7C323.054 574.77 323.834 574.305 324.964 574.305C325.724 574.305 326.324 574.535 326.764 574.995C327.204 575.455 327.424 576.105 327.424 576.945V582ZM333.506 581.82C333.156 581.99 332.706 582.075 332.156 582.075C330.516 582.075 329.696 581.245 329.696 579.585V575.745H328.556V574.395H329.696V572.565H331.496V574.395H333.386V575.745H331.496V579.615C331.496 579.935 331.581 580.18 331.751 580.35C331.921 580.51 332.156 580.59 332.456 580.59C332.836 580.59 333.186 580.485 333.506 580.275V581.82ZM340.794 581.58C340.264 581.91 339.499 582.075 338.499 582.075C337.289 582.075 336.334 581.715 335.634 580.995C334.934 580.275 334.584 579.345 334.584 578.205C334.584 576.995 334.914 576.045 335.574 575.355C336.234 574.665 337.059 574.32 338.049 574.32C339.039 574.32 339.824 574.62 340.404 575.22C340.984 575.82 341.274 576.695 341.274 577.845C341.274 578.125 341.239 578.485 341.169 578.925H336.399C336.529 579.475 336.799 579.895 337.209 580.185C337.629 580.475 338.149 580.62 338.769 580.62C339.569 580.62 340.244 580.42 340.794 580.02V581.58ZM338.094 575.73C337.664 575.73 337.289 575.89 336.969 576.21C336.659 576.52 336.459 576.975 336.369 577.575H339.564V577.35C339.544 576.86 339.409 576.47 339.159 576.18C338.919 575.88 338.564 575.73 338.094 575.73ZM344.444 580.14C344.674 580.36 344.789 580.63 344.789 580.95C344.789 581.27 344.674 581.545 344.444 581.775C344.224 582.005 343.954 582.12 343.634 582.12C343.314 582.12 343.039 582.005 342.809 581.775C342.579 581.545 342.464 581.27 342.464 580.95C342.464 580.63 342.579 580.36 342.809 580.14C343.039 579.91 343.314 579.795 343.634 579.795C343.954 579.795 344.224 579.91 344.444 580.14Z" fill="black"/>
<path d="M169.012 760L167.332 755.248H159.652L157.996 760H154.084L161.188 740.536H165.748L172.9 760H169.012ZM163.396 744.472L160.78 751.864H166.18L163.54 744.472L163.468 744.232L163.396 744.472ZM183.242 746.224H187.226L182.81 760H177.818L173.306 746.224H177.314L180.314 756.448L183.242 746.224ZM194.513 745.768C196.417 745.768 197.937 746.216 199.073 747.112C200.225 747.992 200.801 749.368 200.801 751.24V759.424C198.689 759.968 196.553 760.24 194.393 760.24C192.249 760.24 190.617 759.84 189.497 759.04C188.393 758.224 187.841 757.032 187.841 755.464C187.841 752.456 189.889 750.952 193.985 750.952C194.849 750.952 195.873 751.016 197.057 751.144C197.025 750.488 196.713 749.984 196.121 749.632C195.529 749.28 194.713 749.104 193.673 749.104C191.945 749.104 190.369 749.392 188.945 749.968L189.857 746.488C191.089 746.008 192.641 745.768 194.513 745.768ZM191.657 755.392C191.657 756.416 192.585 756.928 194.441 756.928C195.593 756.928 196.465 756.848 197.057 756.688V754.168C196.193 754.024 195.321 753.952 194.441 753.952C192.585 753.952 191.657 754.432 191.657 755.392ZM204.227 760V740.536H208.019V760H204.227ZM213.599 744.448C212.991 744.448 212.479 744.28 212.063 743.944C211.663 743.608 211.463 743.128 211.463 742.504C211.463 741.944 211.663 741.488 212.063 741.136C212.479 740.784 212.991 740.608 213.599 740.608C214.207 740.608 214.711 740.784 215.111 741.136C215.527 741.488 215.735 741.944 215.735 742.504C215.735 743.112 215.527 743.592 215.111 743.944C214.695 744.28 214.191 744.448 213.599 744.448ZM211.703 760V746.224H215.495V760H211.703ZM224.7 745.768C226.604 745.768 228.124 746.216 229.26 747.112C230.412 747.992 230.988 749.368 230.988 751.24V759.424C228.876 759.968 226.74 760.24 224.58 760.24C222.436 760.24 220.804 759.84 219.684 759.04C218.58 758.224 218.028 757.032 218.028 755.464C218.028 752.456 220.076 750.952 224.172 750.952C225.036 750.952 226.06 751.016 227.244 751.144C227.212 750.488 226.9 749.984 226.308 749.632C225.716 749.28 224.9 749.104 223.86 749.104C222.132 749.104 220.556 749.392 219.132 749.968L220.044 746.488C221.276 746.008 222.828 745.768 224.7 745.768ZM221.844 755.392C221.844 756.416 222.772 756.928 224.628 756.928C225.78 756.928 226.652 756.848 227.244 756.688V754.168C226.38 754.024 225.508 753.952 224.628 753.952C222.772 753.952 221.844 754.432 221.844 755.392ZM234.27 760V746.824C235.966 746.424 237.87 746.224 239.982 746.224H242.574V749.728C242.238 749.728 241.894 749.728 241.542 749.728C241.19 749.712 240.83 749.704 240.462 749.704C239.166 749.704 238.366 749.776 238.062 749.92V760H234.27Z" fill="#040505"/>
<path d="M57.2188 91.6504L58.3584 92.8184L58.7002 93.1689L58.3564 93.5186L51.9795 100L58.3564 106.481L58.7002 106.831L58.3584 107.182L57.2188 108.35L56.8623 108.715L56.5039 108.351L48.6436 100.351L48.2988 100L48.6436 99.6494L56.5039 91.6494L56.8623 91.2852L57.2188 91.6504Z" fill="#040505" stroke="black"/>
<path d="M78.3428 682.456C77.6815 682.904 76.7748 683.128 75.6228 683.128C74.0015 683.128 72.6841 682.632 71.6708 681.64C70.6575 680.637 70.1508 679.277 70.1508 677.56C70.1508 675.939 70.6628 674.621 71.6868 673.608C72.7215 672.584 74.0175 672.072 75.5748 672.072C76.6948 672.072 77.6068 672.264 78.3108 672.648V673.976C77.8415 673.731 77.4201 673.555 77.0468 673.448C76.6735 673.341 76.1828 673.288 75.5748 673.288C74.4121 673.288 73.4415 673.683 72.6628 674.472C71.8948 675.261 71.5108 676.291 71.5108 677.56C71.5108 678.883 71.8948 679.939 72.6628 680.728C73.4308 681.517 74.4495 681.912 75.7188 681.912C76.7428 681.912 77.6175 681.64 78.3428 681.096V682.456ZM87.3118 678.968C87.3118 680.173 86.9705 681.171 86.2878 681.96C85.6051 682.749 84.6665 683.144 83.4718 683.144C82.3091 683.144 81.3865 682.755 80.7038 681.976C80.0318 681.187 79.6958 680.195 79.6958 679C79.6958 677.795 80.0425 676.792 80.7358 675.992C81.4398 675.181 82.3518 674.776 83.4718 674.776C84.6985 674.776 85.6425 675.171 86.3038 675.96C86.9758 676.749 87.3118 677.752 87.3118 678.968ZM81.0078 678.984C81.0078 679.827 81.2318 680.547 81.6798 681.144C82.1278 681.731 82.7251 682.024 83.4718 682.024C84.2825 682.024 84.9065 681.736 85.3438 681.16C85.7811 680.573 85.9998 679.848 85.9998 678.984C85.9998 678.088 85.7918 677.352 85.3758 676.776C84.9598 676.189 84.3251 675.896 83.4718 675.896C82.7038 675.896 82.1011 676.195 81.6638 676.792C81.2265 677.389 81.0078 678.12 81.0078 678.984ZM95.5602 683H94.2962V677.752C94.2962 677.155 94.1415 676.701 93.8322 676.392C93.5335 676.072 93.1389 675.912 92.6482 675.912C92.0402 675.912 91.5122 676.147 91.0642 676.616C90.6269 677.085 90.4082 677.736 90.4082 678.568V683H89.1602V674.888H90.4082V676.296C90.8882 675.283 91.7415 674.776 92.9682 674.776C93.7575 674.776 94.3869 675.016 94.8562 675.496C95.3255 675.976 95.5602 676.616 95.5602 677.416V683ZM101.865 682.792C101.513 682.984 101.118 683.08 100.681 683.08C99.0808 683.08 98.2808 682.264 98.2808 680.632V675.912H96.9848V674.888H98.2808V672.872H99.5448V674.888H101.785V675.912H99.5448V680.664C99.5448 681.528 99.9501 681.96 100.761 681.96C101.177 681.96 101.545 681.837 101.865 681.592V682.792ZM109.627 682.584C108.998 682.915 108.23 683.08 107.323 683.08C106.096 683.08 105.104 682.707 104.347 681.96C103.6 681.203 103.227 680.205 103.227 678.968C103.227 677.677 103.563 676.659 104.235 675.912C104.907 675.165 105.771 674.792 106.827 674.792C107.84 674.792 108.646 675.117 109.243 675.768C109.84 676.419 110.139 677.341 110.139 678.536C110.139 678.877 110.112 679.192 110.059 679.48H104.523C104.619 680.28 104.923 680.893 105.435 681.32C105.947 681.747 106.619 681.96 107.451 681.96C108.358 681.96 109.083 681.773 109.627 681.4V682.584ZM106.827 675.896C106.219 675.896 105.702 676.115 105.275 676.552C104.848 676.989 104.598 677.613 104.523 678.424H108.875V678.104C108.875 677.432 108.694 676.899 108.331 676.504C107.968 676.099 107.467 675.896 106.827 675.896ZM117.221 686.152H115.973V674.888H117.221V676.12C117.786 675.213 118.623 674.76 119.733 674.76C120.81 674.76 121.653 675.155 122.261 675.944C122.879 676.723 123.189 677.699 123.189 678.872C123.189 680.12 122.863 681.144 122.213 681.944C121.573 682.733 120.735 683.128 119.701 683.128C118.634 683.128 117.807 682.675 117.221 681.768V686.152ZM117.221 678.952C117.221 679.987 117.461 680.749 117.941 681.24C118.421 681.731 118.954 681.976 119.541 681.976C120.223 681.976 120.783 681.709 121.221 681.176C121.658 680.632 121.877 679.864 121.877 678.872C121.877 677.987 121.663 677.272 121.237 676.728C120.81 676.184 120.271 675.912 119.621 675.912C118.97 675.912 118.405 676.152 117.925 676.632C117.455 677.101 117.221 677.875 117.221 678.952ZM127.531 682.024C128.107 682.024 128.565 681.864 128.907 681.544C129.248 681.213 129.419 680.797 129.419 680.296V679.256H128.011C127.328 679.256 126.816 679.389 126.475 679.656C126.133 679.923 125.963 680.259 125.963 680.664C125.963 681.069 126.096 681.4 126.363 681.656C126.629 681.901 127.019 682.024 127.531 682.024ZM129.435 682.04C129.019 682.733 128.261 683.08 127.163 683.08C126.405 683.08 125.792 682.856 125.323 682.408C124.864 681.96 124.635 681.395 124.635 680.712C124.635 679.933 124.928 679.331 125.515 678.904C126.112 678.467 126.923 678.248 127.947 678.248H129.419V677.832C129.419 677.192 129.275 676.712 128.987 676.392C128.699 676.061 128.213 675.896 127.531 675.896C126.667 675.896 125.899 676.125 125.227 676.584V675.32C125.835 674.947 126.635 674.76 127.627 674.76C129.664 674.76 130.683 675.795 130.683 677.864V683H129.435V682.04ZM134.174 683H132.91L132.926 674.888H134.174V676.312C134.6 675.309 135.336 674.808 136.382 674.808C136.574 674.808 136.723 674.819 136.83 674.84V676.088C136.606 676.013 136.376 675.976 136.142 675.976C135.576 675.976 135.107 676.237 134.734 676.76C134.36 677.283 134.174 677.885 134.174 678.568V683ZM140.625 682.024C141.201 682.024 141.659 681.864 142.001 681.544C142.342 681.213 142.513 680.797 142.513 680.296V679.256H141.105C140.422 679.256 139.91 679.389 139.569 679.656C139.227 679.923 139.057 680.259 139.057 680.664C139.057 681.069 139.19 681.4 139.457 681.656C139.723 681.901 140.113 682.024 140.625 682.024ZM142.529 682.04C142.113 682.733 141.355 683.08 140.257 683.08C139.499 683.08 138.886 682.856 138.417 682.408C137.958 681.96 137.729 681.395 137.729 680.712C137.729 679.933 138.022 679.331 138.609 678.904C139.206 678.467 140.017 678.248 141.041 678.248H142.513V677.832C142.513 677.192 142.369 676.712 142.081 676.392C141.793 676.061 141.307 675.896 140.625 675.896C139.761 675.896 138.993 676.125 138.321 676.584V675.32C138.929 674.947 139.729 674.76 140.721 674.76C142.758 674.76 143.777 675.795 143.777 677.864V683H142.529V682.04ZM156.326 683H155.062V677.752C155.062 677.155 154.907 676.701 154.598 676.392C154.299 676.072 153.904 675.912 153.414 675.912C152.806 675.912 152.278 676.147 151.83 676.616C151.392 677.085 151.174 677.736 151.174 678.568V683H149.926V674.888H151.174V676.296C151.654 675.283 152.507 674.776 153.734 674.776C154.523 674.776 155.152 675.016 155.622 675.496C156.091 675.976 156.326 676.616 156.326 677.416V683ZM165.702 678.968C165.702 680.173 165.361 681.171 164.678 681.96C163.996 682.749 163.057 683.144 161.862 683.144C160.7 683.144 159.777 682.755 159.094 681.976C158.422 681.187 158.086 680.195 158.086 679C158.086 677.795 158.433 676.792 159.126 675.992C159.83 675.181 160.742 674.776 161.862 674.776C163.089 674.776 164.033 675.171 164.694 675.96C165.366 676.749 165.702 677.752 165.702 678.968ZM159.398 678.984C159.398 679.827 159.622 680.547 160.07 681.144C160.518 681.731 161.116 682.024 161.862 682.024C162.673 682.024 163.297 681.736 163.734 681.16C164.172 680.573 164.39 679.848 164.39 678.984C164.39 678.088 164.182 677.352 163.766 676.776C163.35 676.189 162.716 675.896 161.862 675.896C161.094 675.896 160.492 676.195 160.054 676.792C159.617 677.389 159.398 678.12 159.398 678.984ZM162.63 674.04H161.526L163.11 671.544H164.614L162.63 674.04ZM172.431 680.84C172.431 681.533 172.185 682.083 171.695 682.488C171.215 682.893 170.553 683.096 169.711 683.096C168.729 683.096 167.935 682.931 167.327 682.6V681.368C168.041 681.795 168.809 682.008 169.631 682.008C170.121 682.008 170.495 681.912 170.751 681.72C171.007 681.528 171.135 681.267 171.135 680.936C171.135 680.552 170.991 680.253 170.703 680.04C170.425 679.827 169.956 679.587 169.295 679.32C168.687 679.085 168.196 678.792 167.823 678.44C167.46 678.088 167.279 677.613 167.279 677.016C167.279 676.344 167.529 675.811 168.031 675.416C168.543 675.011 169.177 674.808 169.935 674.808C170.777 674.808 171.455 674.925 171.967 675.16V676.36C171.476 676.061 170.804 675.912 169.951 675.912C169.524 675.912 169.183 676.013 168.927 676.216C168.681 676.408 168.559 676.659 168.559 676.968C168.559 677.16 168.596 677.331 168.671 677.48C168.745 677.619 168.889 677.757 169.103 677.896C169.327 678.035 169.487 678.131 169.583 678.184C169.689 678.227 169.913 678.323 170.255 678.472C170.937 678.749 171.471 679.064 171.855 679.416C172.239 679.768 172.431 680.243 172.431 680.84ZM182.931 680.84C182.931 681.533 182.685 682.083 182.195 682.488C181.715 682.893 181.053 683.096 180.211 683.096C179.229 683.096 178.435 682.931 177.827 682.6V681.368C178.541 681.795 179.309 682.008 180.131 682.008C180.621 682.008 180.995 681.912 181.251 681.72C181.507 681.528 181.635 681.267 181.635 680.936C181.635 680.552 181.491 680.253 181.203 680.04C180.925 679.827 180.456 679.587 179.795 679.32C179.187 679.085 178.696 678.792 178.323 678.44C177.96 678.088 177.779 677.613 177.779 677.016C177.779 676.344 178.029 675.811 178.531 675.416C179.043 675.011 179.677 674.808 180.435 674.808C181.277 674.808 181.955 674.925 182.467 675.16V676.36C181.976 676.061 181.304 675.912 180.451 675.912C180.024 675.912 179.683 676.013 179.427 676.216C179.181 676.408 179.059 676.659 179.059 676.968C179.059 677.16 179.096 677.331 179.171 677.48C179.245 677.619 179.389 677.757 179.603 677.896C179.827 678.035 179.987 678.131 180.083 678.184C180.189 678.227 180.413 678.323 180.755 678.472C181.437 678.749 181.971 679.064 182.355 679.416C182.739 679.768 182.931 680.243 182.931 680.84ZM191.781 678.968C191.781 680.173 191.439 681.171 190.757 681.96C190.074 682.749 189.135 683.144 187.941 683.144C186.778 683.144 185.855 682.755 185.173 681.976C184.501 681.187 184.165 680.195 184.165 679C184.165 677.795 184.511 676.792 185.205 675.992C185.909 675.181 186.821 674.776 187.941 674.776C189.167 674.776 190.111 675.171 190.773 675.96C191.445 676.749 191.781 677.752 191.781 678.968ZM185.477 678.984C185.477 679.827 185.701 680.547 186.149 681.144C186.597 681.731 187.194 682.024 187.941 682.024C188.751 682.024 189.375 681.736 189.813 681.16C190.25 680.573 190.469 679.848 190.469 678.984C190.469 678.088 190.261 677.352 189.845 676.776C189.429 676.189 188.794 675.896 187.941 675.896C187.173 675.896 186.57 676.195 186.133 676.792C185.695 677.389 185.477 678.12 185.477 678.984ZM194.941 683H193.677V671.688H194.941V676.104C195.528 675.208 196.349 674.76 197.405 674.76C198.429 674.76 199.266 675.155 199.917 675.944C200.568 676.723 200.893 677.747 200.893 679.016C200.893 680.157 200.584 681.128 199.965 681.928C199.357 682.728 198.514 683.128 197.437 683.128C196.349 683.128 195.517 682.685 194.941 681.8V683ZM194.941 678.888C194.941 679.965 195.17 680.749 195.629 681.24C196.098 681.731 196.664 681.976 197.325 681.976C197.976 681.976 198.514 681.704 198.941 681.16C199.368 680.616 199.581 679.907 199.581 679.032C199.581 678.029 199.357 677.261 198.909 676.728C198.472 676.184 197.917 675.912 197.245 675.912C196.669 675.912 196.141 676.152 195.661 676.632C195.181 677.112 194.941 677.864 194.941 678.888ZM204.002 683H202.738L202.754 674.888H204.002V676.312C204.429 675.309 205.165 674.808 206.21 674.808C206.402 674.808 206.551 674.819 206.658 674.84V676.088C206.434 676.013 206.205 675.976 205.97 675.976C205.405 675.976 204.935 676.237 204.562 676.76C204.189 677.283 204.002 677.885 204.002 678.568V683ZM213.893 682.584C213.263 682.915 212.495 683.08 211.589 683.08C210.362 683.08 209.37 682.707 208.613 681.96C207.866 681.203 207.493 680.205 207.493 678.968C207.493 677.677 207.829 676.659 208.501 675.912C209.173 675.165 210.037 674.792 211.093 674.792C212.106 674.792 212.911 675.117 213.509 675.768C214.106 676.419 214.405 677.341 214.405 678.536C214.405 678.877 214.378 679.192 214.325 679.48H208.789C208.885 680.28 209.189 680.893 209.701 681.32C210.213 681.747 210.885 681.96 211.717 681.96C212.623 681.96 213.349 681.773 213.893 681.4V682.584ZM211.093 675.896C210.485 675.896 209.967 676.115 209.541 676.552C209.114 676.989 208.863 677.613 208.789 678.424H213.141V678.104C213.141 677.432 212.959 676.899 212.597 676.504C212.234 676.099 211.733 675.896 211.093 675.896ZM225.118 680.84C225.118 681.533 224.873 682.083 224.382 682.488C223.902 682.893 223.241 683.096 222.398 683.096C221.417 683.096 220.622 682.931 220.014 682.6V681.368C220.729 681.795 221.497 682.008 222.318 682.008C222.809 682.008 223.182 681.912 223.438 681.72C223.694 681.528 223.822 681.267 223.822 680.936C223.822 680.552 223.678 680.253 223.39 680.04C223.113 679.827 222.644 679.587 221.982 679.32C221.374 679.085 220.884 678.792 220.51 678.44C220.148 678.088 219.966 677.613 219.966 677.016C219.966 676.344 220.217 675.811 220.718 675.416C221.23 675.011 221.865 674.808 222.622 674.808C223.465 674.808 224.142 674.925 224.654 675.16V676.36C224.164 676.061 223.492 675.912 222.638 675.912C222.212 675.912 221.87 676.013 221.614 676.216C221.369 676.408 221.246 676.659 221.246 676.968C221.246 677.16 221.284 677.331 221.358 677.48C221.433 677.619 221.577 677.757 221.79 677.896C222.014 678.035 222.174 678.131 222.27 678.184C222.377 678.227 222.601 678.323 222.942 678.472C223.625 678.749 224.158 679.064 224.542 679.416C224.926 679.768 225.118 680.243 225.118 680.84ZM233.136 683H231.872V681.592C231.445 682.595 230.597 683.096 229.328 683.096C228.528 683.096 227.893 682.861 227.424 682.392C226.965 681.912 226.736 681.272 226.736 680.472V674.888H228V680.152C228 680.739 228.149 681.187 228.448 681.496C228.747 681.805 229.152 681.96 229.664 681.96C230.336 681.96 230.869 681.725 231.264 681.256C231.669 680.787 231.872 680.152 231.872 679.352V674.888H233.136V683ZM237.953 682.024C238.529 682.024 238.987 681.864 239.329 681.544C239.67 681.213 239.841 680.797 239.841 680.296V679.256H238.433C237.75 679.256 237.238 679.389 236.897 679.656C236.555 679.923 236.385 680.259 236.385 680.664C236.385 681.069 236.518 681.4 236.785 681.656C237.051 681.901 237.441 682.024 237.953 682.024ZM239.857 682.04C239.441 682.733 238.683 683.08 237.585 683.08C236.827 683.08 236.214 682.856 235.745 682.408C235.286 681.96 235.057 681.395 235.057 680.712C235.057 679.933 235.35 679.331 235.937 678.904C236.534 678.467 237.345 678.248 238.369 678.248H239.841V677.832C239.841 677.192 239.697 676.712 239.409 676.392C239.121 676.061 238.635 675.896 237.953 675.896C237.089 675.896 236.321 676.125 235.649 676.584V675.32C236.257 674.947 237.057 674.76 238.049 674.76C240.086 674.76 241.105 675.795 241.105 677.864V683H239.857V682.04ZM253.174 682.584C252.545 682.915 251.777 683.08 250.87 683.08C249.643 683.08 248.651 682.707 247.894 681.96C247.147 681.203 246.774 680.205 246.774 678.968C246.774 677.677 247.11 676.659 247.782 675.912C248.454 675.165 249.318 674.792 250.374 674.792C251.387 674.792 252.193 675.117 252.79 675.768C253.387 676.419 253.686 677.341 253.686 678.536C253.686 678.877 253.659 679.192 253.606 679.48H248.07C248.166 680.28 248.47 680.893 248.982 681.32C249.494 681.747 250.166 681.96 250.998 681.96C251.905 681.96 252.63 681.773 253.174 681.4V682.584ZM250.374 675.896C249.766 675.896 249.249 676.115 248.822 676.552C248.395 676.989 248.145 677.613 248.07 678.424H252.422V678.104C252.422 677.432 252.241 676.899 251.878 676.504C251.515 676.099 251.014 675.896 250.374 675.896ZM256.237 683H254.845L257.565 678.84L255.005 674.872H256.461L258.301 677.912L260.157 674.872H261.597L258.973 678.856L261.693 683H260.237L258.269 679.8L256.237 683ZM264.502 686.152H263.254V674.888H264.502V676.12C265.067 675.213 265.905 674.76 267.014 674.76C268.091 674.76 268.934 675.155 269.542 675.944C270.161 676.723 270.47 677.699 270.47 678.872C270.47 680.12 270.145 681.144 269.494 681.944C268.854 682.733 268.017 683.128 266.982 683.128C265.915 683.128 265.089 682.675 264.502 681.768V686.152ZM264.502 678.952C264.502 679.987 264.742 680.749 265.222 681.24C265.702 681.731 266.235 681.976 266.822 681.976C267.505 681.976 268.065 681.709 268.502 681.176C268.939 680.632 269.158 679.864 269.158 678.872C269.158 677.987 268.945 677.272 268.518 676.728C268.091 676.184 267.553 675.912 266.902 675.912C266.251 675.912 265.686 676.152 265.206 676.632C264.737 677.101 264.502 677.875 264.502 678.952ZM278.252 682.584C277.623 682.915 276.855 683.08 275.948 683.08C274.721 683.08 273.729 682.707 272.972 681.96C272.225 681.203 271.852 680.205 271.852 678.968C271.852 677.677 272.188 676.659 272.86 675.912C273.532 675.165 274.396 674.792 275.452 674.792C276.465 674.792 277.271 675.117 277.868 675.768C278.465 676.419 278.764 677.341 278.764 678.536C278.764 678.877 278.737 679.192 278.684 679.48H273.148C273.244 680.28 273.548 680.893 274.06 681.32C274.572 681.747 275.244 681.96 276.076 681.96C276.983 681.96 277.708 681.773 278.252 681.4V682.584ZM275.452 675.896C274.844 675.896 274.327 676.115 273.9 676.552C273.473 676.989 273.223 677.613 273.148 678.424H277.5V678.104C277.5 677.432 277.319 676.899 276.956 676.504C276.593 676.099 276.092 675.896 275.452 675.896ZM281.939 683H280.675L280.691 674.888H281.939V676.312C282.366 675.309 283.102 674.808 284.147 674.808C284.339 674.808 284.489 674.819 284.595 674.84V676.088C284.371 676.013 284.142 675.976 283.907 675.976C283.342 675.976 282.873 676.237 282.499 676.76C282.126 677.283 281.939 677.885 281.939 678.568V683ZM287.238 683H285.974V674.888H287.238V683ZM287.19 671.752C287.35 671.912 287.43 672.109 287.43 672.344C287.43 672.579 287.35 672.776 287.19 672.936C287.03 673.085 286.833 673.16 286.598 673.16C286.364 673.16 286.166 673.085 286.006 672.936C285.857 672.776 285.782 672.579 285.782 672.344C285.782 672.109 285.857 671.912 286.006 671.752C286.166 671.592 286.364 671.512 286.598 671.512C286.833 671.512 287.03 671.592 287.19 671.752ZM295.565 682.584C294.935 682.915 294.167 683.08 293.261 683.08C292.034 683.08 291.042 682.707 290.285 681.96C289.538 681.203 289.165 680.205 289.165 678.968C289.165 677.677 289.501 676.659 290.173 675.912C290.845 675.165 291.709 674.792 292.765 674.792C293.778 674.792 294.583 675.117 295.181 675.768C295.778 676.419 296.077 677.341 296.077 678.536C296.077 678.877 296.05 679.192 295.997 679.48H290.461C290.557 680.28 290.861 680.893 291.373 681.32C291.885 681.747 292.557 681.96 293.389 681.96C294.295 681.96 295.021 681.773 295.565 681.4V682.584ZM292.765 675.896C292.157 675.896 291.639 676.115 291.213 676.552C290.786 676.989 290.535 677.613 290.461 678.424H294.813V678.104C294.813 677.432 294.631 676.899 294.269 676.504C293.906 676.099 293.405 675.896 292.765 675.896ZM291.613 674.04H290.333L292.365 671.544H293.581L295.613 674.04H294.333L292.973 672.36L291.613 674.04ZM304.404 683H303.14V677.752C303.14 677.155 302.985 676.701 302.676 676.392C302.377 676.072 301.983 675.912 301.492 675.912C300.884 675.912 300.356 676.147 299.908 676.616C299.471 677.085 299.252 677.736 299.252 678.568V683H298.004V674.888H299.252V676.296C299.732 675.283 300.585 674.776 301.812 674.776C302.601 674.776 303.231 675.016 303.7 675.496C304.169 675.976 304.404 676.616 304.404 677.416V683ZM312.229 682.712C311.717 683.021 311.087 683.176 310.341 683.176C309.061 683.176 308.042 682.771 307.285 681.96C306.538 681.139 306.165 680.141 306.165 678.968C306.165 677.816 306.538 676.824 307.285 675.992C308.042 675.16 309.071 674.744 310.373 674.744C311.066 674.744 311.685 674.893 312.229 675.192V676.392C311.738 676.061 311.162 675.896 310.501 675.896C309.583 675.896 308.847 676.195 308.293 676.792C307.749 677.379 307.477 678.109 307.477 678.984C307.487 679.859 307.754 680.589 308.277 681.176C308.799 681.752 309.541 682.04 310.501 682.04C311.119 682.04 311.695 681.864 312.229 681.512V682.712ZM315.504 683H314.24V674.888H315.504V683ZM315.456 671.752C315.616 671.912 315.696 672.109 315.696 672.344C315.696 672.579 315.616 672.776 315.456 672.936C315.296 673.085 315.098 673.16 314.864 673.16C314.629 673.16 314.432 673.085 314.272 672.936C314.122 672.776 314.048 672.579 314.048 672.344C314.048 672.109 314.122 671.912 314.272 671.752C314.432 671.592 314.629 671.512 314.864 671.512C315.098 671.512 315.296 671.592 315.456 671.752ZM320.39 682.024C320.966 682.024 321.425 681.864 321.766 681.544C322.108 681.213 322.278 680.797 322.278 680.296V679.256H320.87C320.188 679.256 319.676 679.389 319.334 679.656C318.993 679.923 318.822 680.259 318.822 680.664C318.822 681.069 318.956 681.4 319.222 681.656C319.489 681.901 319.878 682.024 320.39 682.024ZM322.294 682.04C321.878 682.733 321.121 683.08 320.022 683.08C319.265 683.08 318.652 682.856 318.182 682.408C317.724 681.96 317.494 681.395 317.494 680.712C317.494 679.933 317.788 679.331 318.374 678.904C318.972 678.467 319.782 678.248 320.806 678.248H322.278V677.832C322.278 677.192 322.134 676.712 321.846 676.392C321.558 676.061 321.073 675.896 320.39 675.896C319.526 675.896 318.758 676.125 318.086 676.584V675.32C318.694 674.947 319.494 674.76 320.486 674.76C322.524 674.76 323.542 675.795 323.542 677.864V683H322.294V682.04ZM101.776 702.584C101.146 702.915 100.378 703.08 99.4715 703.08C98.2448 703.08 97.2528 702.707 96.4955 701.96C95.7488 701.203 95.3755 700.205 95.3755 698.968C95.3755 697.677 95.7115 696.659 96.3835 695.912C97.0555 695.165 97.9195 694.792 98.9755 694.792C99.9888 694.792 100.794 695.117 101.392 695.768C101.989 696.419 102.288 697.341 102.288 698.536C102.288 698.877 102.261 699.192 102.208 699.48H96.6715C96.7675 700.28 97.0715 700.893 97.5835 701.32C98.0955 701.747 98.7675 701.96 99.5995 701.96C100.506 701.96 101.232 701.773 101.776 701.4V702.584ZM98.9755 695.896C98.3675 695.896 97.8502 696.115 97.4235 696.552C96.9968 696.989 96.7462 697.613 96.6715 698.424H101.024V698.104C101.024 697.432 100.842 696.899 100.48 696.504C100.117 696.099 99.6155 695.896 98.9755 695.896ZM110.601 702.024C111.177 702.024 111.636 701.864 111.977 701.544C112.318 701.213 112.489 700.797 112.489 700.296V699.256H111.081C110.398 699.256 109.886 699.389 109.545 699.656C109.204 699.923 109.033 700.259 109.033 700.664C109.033 701.069 109.166 701.4 109.433 701.656C109.7 701.901 110.089 702.024 110.601 702.024ZM112.505 702.04C112.089 702.733 111.332 703.08 110.233 703.08C109.476 703.08 108.862 702.856 108.393 702.408C107.934 701.96 107.705 701.395 107.705 700.712C107.705 699.933 107.998 699.331 108.585 698.904C109.182 698.467 109.993 698.248 111.017 698.248H112.489V697.832C112.489 697.192 112.345 696.712 112.057 696.392C111.769 696.061 111.284 695.896 110.601 695.896C109.737 695.896 108.969 696.125 108.297 696.584V695.32C108.905 694.947 109.705 694.76 110.697 694.76C112.734 694.76 113.753 695.795 113.753 697.864V703H112.505V702.04ZM117.324 703.88C117.324 704.584 117.137 705.133 116.764 705.528C116.401 705.923 115.895 706.12 115.244 706.12C114.892 706.12 114.508 706.04 114.092 705.88V704.76C114.497 704.931 114.86 705.016 115.18 705.016C115.777 705.016 116.076 704.627 116.076 703.848V694.888H117.324V703.88ZM117.276 691.752C117.436 691.912 117.516 692.109 117.516 692.344C117.516 692.579 117.436 692.776 117.276 692.936C117.116 693.085 116.919 693.16 116.684 693.16C116.449 693.16 116.252 693.085 116.092 692.936C115.943 692.776 115.868 692.579 115.868 692.344C115.868 692.109 115.943 691.912 116.092 691.752C116.252 691.592 116.449 691.512 116.684 691.512C116.919 691.512 117.116 691.592 117.276 691.752ZM125.941 703H124.677V701.592C124.25 702.595 123.402 703.096 122.133 703.096C121.333 703.096 120.698 702.861 120.229 702.392C119.77 701.912 119.541 701.272 119.541 700.472V694.888H120.805V700.152C120.805 700.739 120.954 701.187 121.253 701.496C121.551 701.805 121.957 701.96 122.469 701.96C123.141 701.96 123.674 701.725 124.069 701.256C124.474 700.787 124.677 700.152 124.677 699.352V694.888H125.941V703ZM129.109 699.032C129.109 699.907 129.323 700.616 129.749 701.16C130.176 701.704 130.715 701.976 131.365 701.976C132.027 701.976 132.587 701.731 133.045 701.24C133.515 700.749 133.749 699.965 133.749 698.888C133.749 697.864 133.509 697.112 133.029 696.632C132.549 696.152 132.021 695.912 131.445 695.912C130.773 695.912 130.213 696.184 129.765 696.728C129.328 697.261 129.109 698.029 129.109 699.032ZM135.013 703H133.749V701.8C133.173 702.685 132.341 703.128 131.253 703.128C130.176 703.128 129.328 702.728 128.709 701.928C128.101 701.128 127.797 700.157 127.797 699.016C127.797 697.747 128.123 696.723 128.773 695.944C129.424 695.155 130.261 694.76 131.285 694.76C132.341 694.76 133.163 695.213 133.749 696.12V691.688H135.013V703ZM143.276 702.584C142.646 702.915 141.878 703.08 140.972 703.08C139.745 703.08 138.753 702.707 137.996 701.96C137.249 701.203 136.876 700.205 136.876 698.968C136.876 697.677 137.212 696.659 137.884 695.912C138.556 695.165 139.42 694.792 140.476 694.792C141.489 694.792 142.294 695.117 142.892 695.768C143.489 696.419 143.788 697.341 143.788 698.536C143.788 698.877 143.761 699.192 143.708 699.48H138.172C138.268 700.28 138.572 700.893 139.084 701.32C139.596 701.747 140.268 701.96 141.1 701.96C142.006 701.96 142.732 701.773 143.276 701.4V702.584ZM140.476 695.896C139.868 695.896 139.35 696.115 138.924 696.552C138.497 696.989 138.246 697.613 138.172 698.424H142.524V698.104C142.524 697.432 142.342 696.899 141.98 696.504C141.617 696.099 141.116 695.896 140.476 695.896ZM152.101 702.024C152.677 702.024 153.136 701.864 153.477 701.544C153.818 701.213 153.989 700.797 153.989 700.296V699.256H152.581C151.898 699.256 151.386 699.389 151.045 699.656C150.704 699.923 150.533 700.259 150.533 700.664C150.533 701.069 150.666 701.4 150.933 701.656C151.2 701.901 151.589 702.024 152.101 702.024ZM154.005 702.04C153.589 702.733 152.832 703.08 151.733 703.08C150.976 703.08 150.362 702.856 149.893 702.408C149.434 701.96 149.205 701.395 149.205 700.712C149.205 699.933 149.498 699.331 150.085 698.904C150.682 698.467 151.493 698.248 152.517 698.248H153.989V697.832C153.989 697.192 153.845 696.712 153.557 696.392C153.269 696.061 152.784 695.896 152.101 695.896C151.237 695.896 150.469 696.125 149.797 696.584V695.32C150.405 694.947 151.205 694.76 152.197 694.76C154.234 694.76 155.253 695.795 155.253 697.864V703H154.005V702.04ZM172.25 703H170.986V697.752C170.986 696.525 170.469 695.912 169.434 695.912C168.922 695.912 168.464 696.147 168.058 696.616C167.653 697.075 167.45 697.725 167.45 698.568V703H166.186V697.752C166.186 696.525 165.669 695.912 164.634 695.912C164.122 695.912 163.664 696.147 163.258 696.616C162.853 697.075 162.65 697.725 162.65 698.568V703H161.402V694.888H162.65V696.2C163.098 695.251 163.861 694.776 164.938 694.776C166.186 694.776 166.976 695.304 167.306 696.36C167.541 695.848 167.866 695.459 168.282 695.192C168.709 694.915 169.184 694.776 169.706 694.776C170.549 694.776 171.184 695.016 171.61 695.496C172.037 695.976 172.25 696.621 172.25 697.432V703ZM180.416 702.584C179.787 702.915 179.019 703.08 178.112 703.08C176.885 703.08 175.893 702.707 175.136 701.96C174.389 701.203 174.016 700.205 174.016 698.968C174.016 697.677 174.352 696.659 175.024 695.912C175.696 695.165 176.56 694.792 177.616 694.792C178.629 694.792 179.435 695.117 180.032 695.768C180.629 696.419 180.928 697.341 180.928 698.536C180.928 698.877 180.901 699.192 180.848 699.48H175.312C175.408 700.28 175.712 700.893 176.224 701.32C176.736 701.747 177.408 701.96 178.24 701.96C179.147 701.96 179.872 701.773 180.416 701.4V702.584ZM177.616 695.896C177.008 695.896 176.491 696.115 176.064 696.552C175.637 696.989 175.387 697.613 175.312 698.424H179.664V698.104C179.664 697.432 179.483 696.899 179.12 696.504C178.757 696.099 178.256 695.896 177.616 695.896ZM184.184 703H182.92V691.688H184.184V703ZM192.99 703H191.726V697.752C191.726 697.165 191.571 696.712 191.262 696.392C190.963 696.072 190.569 695.912 190.078 695.912C189.481 695.912 188.958 696.141 188.51 696.6C188.062 697.059 187.838 697.715 187.838 698.568V703H186.59V691.688H187.838V696.296C188.318 695.283 189.171 694.776 190.398 694.776C191.177 694.776 191.801 695.016 192.27 695.496C192.75 695.976 192.99 696.627 192.99 697.448V703ZM202.367 698.968C202.367 700.173 202.025 701.171 201.343 701.96C200.66 702.749 199.721 703.144 198.527 703.144C197.364 703.144 196.441 702.755 195.759 701.976C195.087 701.187 194.751 700.195 194.751 699C194.751 697.795 195.097 696.792 195.791 695.992C196.495 695.181 197.407 694.776 198.527 694.776C199.753 694.776 200.697 695.171 201.359 695.96C202.031 696.749 202.367 697.752 202.367 698.968ZM196.062 698.984C196.062 699.827 196.287 700.547 196.735 701.144C197.183 701.731 197.78 702.024 198.527 702.024C199.337 702.024 199.961 701.736 200.399 701.16C200.836 700.573 201.055 699.848 201.055 698.984C201.055 698.088 200.847 697.352 200.431 696.776C200.015 696.189 199.38 695.896 198.527 695.896C197.759 695.896 197.156 696.195 196.719 696.792C196.281 697.389 196.062 698.12 196.062 698.984ZM205.463 703H204.199L204.215 694.888H205.463V696.312C205.89 695.309 206.626 694.808 207.671 694.808C207.863 694.808 208.012 694.819 208.119 694.84V696.088C207.895 696.013 207.666 695.976 207.431 695.976C206.866 695.976 206.396 696.237 206.023 696.76C205.65 697.283 205.463 697.885 205.463 698.568V703ZM211.914 702.024C212.49 702.024 212.948 701.864 213.29 701.544C213.631 701.213 213.802 700.797 213.802 700.296V699.256H212.394C211.711 699.256 211.199 699.389 210.858 699.656C210.516 699.923 210.346 700.259 210.346 700.664C210.346 701.069 210.479 701.4 210.746 701.656C211.012 701.901 211.402 702.024 211.914 702.024ZM213.818 702.04C213.402 702.733 212.644 703.08 211.546 703.08C210.788 703.08 210.175 702.856 209.706 702.408C209.247 701.96 209.018 701.395 209.018 700.712C209.018 699.933 209.311 699.331 209.898 698.904C210.495 698.467 211.306 698.248 212.33 698.248H213.802V697.832C213.802 697.192 213.658 696.712 213.37 696.392C213.082 696.061 212.596 695.896 211.914 695.896C211.05 695.896 210.282 696.125 209.61 696.584V695.32C210.218 694.947 211.018 694.76 212.01 694.76C214.047 694.76 215.066 695.795 215.066 697.864V703H213.818V702.04ZM218.557 703H217.293L217.309 694.888H218.557V696.312C218.983 695.309 219.719 694.808 220.765 694.808C220.957 694.808 221.106 694.819 221.213 694.84V696.088C220.989 696.013 220.759 695.976 220.525 695.976C219.959 695.976 219.49 696.237 219.117 696.76C218.743 697.283 218.557 697.885 218.557 698.568V703ZM228.914 702.024C229.49 702.024 229.948 701.864 230.29 701.544C230.631 701.213 230.802 700.797 230.802 700.296V699.256H229.394C228.711 699.256 228.199 699.389 227.858 699.656C227.516 699.923 227.346 700.259 227.346 700.664C227.346 701.069 227.479 701.4 227.746 701.656C228.012 701.901 228.402 702.024 228.914 702.024ZM230.818 702.04C230.402 702.733 229.644 703.08 228.546 703.08C227.788 703.08 227.175 702.856 226.706 702.408C226.247 701.96 226.018 701.395 226.018 700.712C226.018 699.933 226.311 699.331 226.898 698.904C227.495 698.467 228.306 698.248 229.33 698.248H230.802V697.832C230.802 697.192 230.658 696.712 230.37 696.392C230.082 696.061 229.596 695.896 228.914 695.896C228.05 695.896 227.282 696.125 226.61 696.584V695.32C227.218 694.947 228.018 694.76 229.01 694.76C231.047 694.76 232.066 695.795 232.066 697.864V703H230.818V702.04ZM244.791 703H238.087V692.216H244.727V694.184H240.567V696.632H244.279V698.584H240.567V701.032H244.791V703ZM250.742 699.768H246.47V697.848H250.742V699.768ZM258.557 698.936H254.989V703H252.509V692.216H259.085V694.184H254.989V696.968H258.557V698.936ZM267.051 703H260.603V692.216H263.067V700.84H267.051V703ZM278.511 697.576C278.511 699.229 278.031 700.568 277.071 701.592C276.122 702.605 274.852 703.112 273.263 703.112C271.663 703.112 270.388 702.605 269.439 701.592C268.49 700.579 268.015 699.24 268.015 697.576C268.015 695.923 268.49 694.589 269.439 693.576C270.399 692.552 271.674 692.04 273.263 692.04C274.863 692.04 276.138 692.547 277.087 693.56C278.036 694.573 278.511 695.912 278.511 697.576ZM271.359 695.176C270.89 695.763 270.655 696.563 270.655 697.576C270.655 698.589 270.89 699.395 271.359 699.992C271.828 700.579 272.463 700.872 273.263 700.872C274.063 700.872 274.698 700.579 275.167 699.992C275.636 699.395 275.871 698.589 275.871 697.576C275.871 696.563 275.636 695.763 275.167 695.176C274.698 694.579 274.063 694.28 273.263 694.28C272.463 694.28 271.828 694.579 271.359 695.176ZM285.108 703H282.356L279.46 692.216H282.052L283.044 696.184C283.258 697.037 283.434 697.811 283.572 698.504C283.711 699.187 283.796 699.661 283.828 699.928L283.892 700.312C284.074 699.48 284.436 698.104 284.98 696.184L286.052 692.376H287.876L288.932 696.184C289.156 696.984 289.354 697.731 289.524 698.424C289.706 699.107 289.828 699.592 289.892 699.88L289.988 700.312C290.127 699.363 290.426 697.981 290.884 696.168L291.876 692.216H294.388L291.508 703H288.756L287.812 699.592C287.588 698.771 287.402 698.077 287.252 697.512C287.114 696.947 287.028 696.584 286.996 696.424L286.964 696.184C286.932 696.621 286.644 697.757 286.1 699.592L285.108 703ZM298.112 699.224H295.888V692.216H298.112V699.224ZM298 700.648C298.288 700.925 298.432 701.267 298.432 701.672C298.432 702.077 298.288 702.424 298 702.712C297.722 702.989 297.381 703.128 296.976 703.128C296.57 703.128 296.224 702.989 295.936 702.712C295.658 702.424 295.52 702.077 295.52 701.672C295.52 701.267 295.658 700.925 295.936 700.648C296.224 700.36 296.57 700.216 296.976 700.216C297.381 700.216 297.722 700.36 298 700.648Z" fill="#040505"/>
</svg>
