<svg width="321" height="262" viewBox="0 0 321 262" fill="none" xmlns="http://www.w3.org/2000/svg">
<circle cx="162" cy="129" r="129" fill="#A1D0FE" fill-opacity="0.46"/>
<path d="M160.928 46C217.62 46 263.642 92.1726 263.642 149.049V252.098H58.2146V149.049C58.2146 92.1726 104.244 46 160.928 46Z" fill="#D3FB16"/>
<path d="M264.588 89.0883H223.608C201.621 89.0883 183.797 106.971 183.797 129.03C183.797 151.089 201.621 168.971 223.608 168.971H264.588C286.575 168.971 304.4 151.089 304.4 129.03C304.4 106.971 286.575 89.0883 264.588 89.0883Z" fill="#B8D500"/>
<path d="M55.9121 31H30.0879C16.2322 31 5 40.6259 5 52.5C5 64.3741 16.2322 74 30.0879 74H55.9121C69.7678 74 81 64.3741 81 52.5C81 40.6259 69.7678 31 55.9121 31Z" fill="#A1D0FE"/>
<path d="M93.5239 14H73.4761C62.7198 14 54 22.7304 54 33.5C54 44.2696 62.7198 53 73.4761 53H93.5239C104.28 53 113 44.2696 113 33.5C113 22.7304 104.28 14 93.5239 14Z" fill="#A1D0FE"/>
<path d="M268.194 17H247.806C236.868 17 228 25.9543 228 37C228 48.0457 236.868 57 247.806 57H268.194C279.132 57 288 48.0457 288 37C288 25.9543 279.132 17 268.194 17Z" fill="#A1D0FE"/>
<path d="M301.194 30H280.806C269.868 30 261 38.9543 261 50C261 61.0457 269.868 70 280.806 70H301.194C312.132 70 321 61.0457 321 50C321 38.9543 312.132 30 301.194 30Z" fill="#A1D0FE"/>
<path d="M231.864 170.562C266.049 170.562 293.8 198.404 293.8 232.7V252.091H169.928V232.7C169.928 198.404 197.68 170.562 231.864 170.562Z" fill="#215F20"/>
<path d="M141.016 135.652C181.189 135.652 213.802 168.371 213.802 208.675V252.105H68.2302V208.675C68.2302 168.371 100.843 135.652 141.016 135.652Z" fill="#3E8016"/>
<path d="M77.397 161.882C108.514 161.882 133.782 187.232 133.782 218.451V252.091H21.0115V218.451C21.0115 187.232 46.2796 161.882 77.397 161.882Z" fill="#90B821"/>
<path d="M116.499 193.812C136.606 193.812 152.93 210.189 152.93 230.362V252.098H80.0679V230.362C80.0679 210.189 96.3916 193.812 116.499 193.812Z" fill="#D3FB16"/>
<path d="M214.289 207.3C229.743 207.3 242.283 219.889 242.283 235.386V252.091H186.287V235.386C186.287 219.882 198.834 207.3 214.282 207.3H214.289Z" fill="#215F20"/>
<path d="M315.006 252H4.93816C2.21089 252 0 254.217 0 256.951C0 259.685 2.21089 261.902 4.93816 261.902H315.006C317.733 261.902 319.944 259.685 319.944 256.951C319.944 254.217 317.733 252 315.006 252Z" fill="#DEDEE0"/>
<path d="M258.113 155.462H160.094V153.124C160.094 151.359 161.52 149.928 163.279 149.928H258.113V155.469V155.462Z" fill="#FB3F20"/>
<path d="M313.963 209.701H172.286V242.308H313.963V209.701Z" fill="#110C08"/>
<path d="M223.845 217.851H215.846V252.105H223.845V217.851Z" fill="#110C08"/>
<path d="M215.846 252.098C222.964 252.098 228.734 244.432 228.734 234.975C228.734 225.518 222.964 217.851 215.846 217.851C208.729 217.851 202.958 225.518 202.958 234.975C202.958 244.432 208.729 252.098 215.846 252.098Z" fill="#110C08"/>
<path d="M224.574 252.096C231.685 251.787 237.12 243.878 236.712 234.429C236.304 224.981 230.208 217.572 223.097 217.881C215.986 218.19 210.552 226.1 210.96 235.548C211.368 244.997 217.463 252.405 224.574 252.096Z" fill="#2F2E33"/>
<path d="M223.845 250.131C230.144 250.131 235.251 243.345 235.251 234.975C235.251 226.604 230.144 219.819 223.845 219.819C217.545 219.819 212.438 226.604 212.438 234.975C212.438 243.345 217.545 250.131 223.845 250.131Z" fill="#110C08"/>
<path d="M223.845 248.309C229.388 248.309 233.881 242.339 233.881 234.975C233.881 227.61 229.388 221.64 223.845 221.64C218.302 221.64 213.809 227.61 213.809 234.975C213.809 242.339 218.302 248.309 223.845 248.309Z" fill="white"/>
<path d="M223.845 243.481C227.382 243.481 230.25 239.672 230.25 234.975C230.25 230.277 227.382 226.469 223.845 226.469C220.307 226.469 217.439 230.277 217.439 234.975C217.439 239.672 220.307 243.481 223.845 243.481Z" fill="#110C08"/>
<path d="M295.254 217.851H287.255V252.105H295.254V217.851Z" fill="#110C08"/>
<path d="M287.255 252.098C294.373 252.098 300.143 244.432 300.143 234.975C300.143 225.518 294.373 217.851 287.255 217.851C280.137 217.851 274.367 225.518 274.367 234.975C274.367 244.432 280.137 252.098 287.255 252.098Z" fill="#110C08"/>
<path d="M295.986 252.102C303.097 251.793 308.531 243.883 308.123 234.434C307.715 224.986 301.62 217.577 294.509 217.886C287.398 218.195 281.963 226.105 282.371 235.553C282.779 245.002 288.875 252.411 295.986 252.102Z" fill="#2F2E33"/>
<path d="M295.253 250.131C301.553 250.131 306.66 243.345 306.66 234.975C306.66 226.604 301.553 219.819 295.253 219.819C288.954 219.819 283.847 226.604 283.847 234.975C283.847 243.345 288.954 250.131 295.253 250.131Z" fill="#110C08"/>
<path d="M295.254 248.309C300.796 248.309 305.29 242.339 305.29 234.975C305.29 227.61 300.796 221.64 295.254 221.64C289.711 221.64 285.217 227.61 285.217 234.975C285.217 242.339 289.711 248.309 295.254 248.309Z" fill="white"/>
<path d="M295.253 243.481C298.791 243.481 301.659 239.672 301.659 234.975C301.659 230.277 298.791 226.469 295.253 226.469C291.716 226.469 288.848 230.277 288.848 234.975C288.848 239.672 291.716 243.481 295.253 243.481Z" fill="#110C08"/>
<path d="M313.963 204.712C313.963 198.99 311.299 193.596 306.764 190.121H177.614V234.968H208.585L208.551 231.479C208.071 220.377 214.629 213.992 222.983 213.629C231.343 213.267 238.506 219.044 238.986 230.146C239.056 231.807 239.077 234.975 239.077 234.975H280.203C280.203 234.975 280.182 232.672 280.126 231.465C279.646 220.363 286.031 213.992 294.391 213.629C302.751 213.267 309.915 219.044 310.395 230.146C310.465 231.807 310.423 234.975 310.423 234.975H313.977V204.719L313.963 204.712Z" fill="#C11F0A"/>
<path d="M306.764 190.128H213.266L233.457 155.064C235.286 151.889 238.666 149.928 242.325 149.928H286.261C290.691 149.928 294.621 152.789 295.998 157.018L306.757 190.128H306.764Z" fill="#C11F0A"/>
<path d="M306.764 190.128H212.042V187.427H305.902L306.764 190.128Z" fill="#FB3F20"/>
<path d="M287.798 187.427H219.519L238.138 154.248H277.914C280.356 154.248 282.435 156.013 282.846 158.42L287.791 187.427H287.798Z" fill="#110C08"/>
<path d="M285.746 187.427H219.519L237.456 155.469H276.885C278.853 155.469 280.536 156.892 280.87 158.839L285.746 187.427Z" fill="#2F2E33"/>
<path d="M222.322 187.386H231.558L249.037 157.792H239.793L222.322 187.386Z" fill="#403D47"/>
<path d="M234.375 187.386H236.941L254.42 157.792H251.853L234.375 187.386Z" fill="#403D47"/>
<path d="M233.45 187.427H235.251V159.397L233.45 162.607V187.427Z" fill="#110C08"/>
<path d="M223.845 187.428H235.703C239.23 187.428 242.408 185.285 243.737 182.006C244.397 180.373 243.201 178.587 241.441 178.587H234.451C232.567 178.587 230.765 179.41 229.534 180.84L223.838 187.428H223.845Z" fill="#110C08"/>
<path d="M232.914 185.53H220.583L219.519 187.428H233.45L232.914 185.53Z" fill="#110C08"/>
<path d="M269.742 198.125H280.161C280.815 198.125 281.336 197.594 281.336 196.945C281.336 196.289 280.808 195.766 280.161 195.766H269.742C269.088 195.766 268.567 196.296 268.567 196.945C268.567 197.601 269.095 198.125 269.742 198.125Z" fill="#FB3F20"/>
<path d="M239.07 234.975H280.196V236.314C280.196 238.205 278.666 239.741 276.781 239.741H242.492C240.607 239.741 239.077 238.205 239.077 236.314V234.975H239.07Z" fill="#2F2E33"/>
<path d="M286.81 214.425V190.128" stroke="#110C08" stroke-width="0.86" stroke-miterlimit="10"/>
<path d="M234.347 190.128V210.154C239.007 214.62 242.666 220.907 242.666 227.376V232.609L280.189 232.505" stroke="#110C08" stroke-width="0.86" stroke-miterlimit="10"/>
<path d="M151.97 217.879V217.844H143.972C136.85 217.844 131.084 225.513 131.084 234.968C131.084 244.423 136.857 252.091 143.972 252.091H151.97V252.057C152.214 252.064 152.464 252.084 152.708 252.071C159.823 251.763 165.255 243.851 164.844 234.403C164.448 225.282 158.759 218.088 151.963 217.872L151.97 217.879Z" fill="#110C08"/>
<path d="M310.409 242.308H315.771C318.108 242.308 320 240.41 320 238.066V235.051C320 232.707 318.108 230.809 315.771 230.809H310.409V242.308Z" fill="#818181"/>
<path d="M153.709 187.427H141.851C138.324 187.427 135.146 185.285 133.817 182.006C133.157 180.373 134.353 178.587 136.113 178.587H153.716V187.427H153.709Z" fill="#110C08"/>
<path d="M183.679 217.146H110.538V234.975H183.679V217.146Z" fill="#C11F0A"/>
<path d="M213.266 190.128H140.133L163.286 149.928H236.42L213.266 190.128Z" fill="#FB3F20"/>
<path d="M144.994 187.386L164.538 154.206H230.306L210.832 187.386H144.994Z" fill="#110C08"/>
<path d="M146.803 187.386L165.686 155.42H229.59L210.832 187.386H146.803Z" fill="#2F2E33"/>
<path d="M213.266 190.128H140.126L114.287 209.603C111.923 211.383 110.531 214.181 110.531 217.146H183.672C183.672 214.181 185.063 211.383 187.428 209.603L213.266 190.128Z" fill="#FB3F20"/>
<path d="M132.239 225.296L130.312 218.94C129.735 217.028 130.076 215.004 131.265 213.406C132.419 211.843 134.179 210.95 136.099 210.95H155.212C157.131 210.95 158.891 211.843 160.045 213.406C161.228 215.011 161.575 217.028 160.998 218.94L159.072 225.296H132.246H132.239Z" fill="#C11F0A"/>
<path d="M158.314 224.285H132.976L131.265 218.639C130.256 215.318 132.684 211.948 136.085 211.948H155.198C158.599 211.948 161.026 215.318 160.018 218.639L158.307 224.285H158.314Z" fill="#110C08"/>
<mask id="mask0_0_1" style="mask-type:luminance" maskUnits="userSpaceOnUse" x="132" y="212" width="29" height="13">
<path d="M158.355 224.285H134.262L132.635 219.016C131.675 215.918 133.984 212.771 137.218 212.771H155.392C158.626 212.771 160.936 215.911 159.976 219.016L158.348 224.285H158.355Z" fill="white"/>
</mask>
<g mask="url(#mask0_0_1)">
<path d="M158.355 224.285H134.262L132.635 219.016C131.675 215.918 133.984 212.771 137.218 212.771H155.392C158.626 212.771 160.936 215.911 159.976 219.016L158.348 224.285H158.355Z" fill="#181C1B"/>
<path d="M132.419 214.09H160.198" stroke="#2F2E33" stroke-width="1.36" stroke-miterlimit="10"/>
<path d="M132.419 216.414H160.198" stroke="#2F2E33" stroke-width="1.36" stroke-miterlimit="10"/>
<path d="M132.419 218.73H160.198" stroke="#2F2E33" stroke-width="1.36" stroke-miterlimit="10"/>
<path d="M132.419 221.054H160.198" stroke="#2F2E33" stroke-width="1.36" stroke-miterlimit="10"/>
<path d="M132.419 223.377H160.198" stroke="#2F2E33" stroke-width="1.36" stroke-miterlimit="10"/>
</g>
<path d="M192.15 204.265C182.128 204.823 174.47 207.921 168.127 212.429H182.587C183.213 211.341 184.041 210.371 185.07 209.596L192.15 204.258V204.265Z" fill="white"/>
<path d="M127.245 212.429C126.841 208.982 125.263 206.379 122.515 204.635L115.929 209.603C114.899 210.378 114.072 211.348 113.446 212.436H127.245V212.429Z" fill="white"/>
<path d="M109.036 230.809H183.672V242.308H109.036C106.699 242.308 104.807 240.41 104.807 238.066V235.051C104.807 232.707 106.699 230.809 109.036 230.809Z" fill="#DEDEE0"/>
<path d="M183.679 242.308H195.628C197.965 242.308 199.857 240.41 199.857 238.066V235.051C199.857 232.707 197.965 230.809 195.628 230.809H183.679" fill="#818181"/>
<path d="M160.073 232.595H128.782V239.88H160.073V232.595Z" fill="#4E5754"/>
<path d="M160.073 233.572H130.034V239.887H160.073V233.572Z" fill="white"/>
<path d="M150.781 187.386H166.437L183.915 157.792H168.259L150.781 187.386Z" fill="#403D47"/>
<path d="M169.574 187.386H174.916L192.394 157.792H187.052L169.574 187.386Z" fill="#403D47"/>
<path d="M69.8437 252.098H26.7634V149.928H60.7185L69.8437 162.496V252.098Z" fill="#685BC6"/>
<path d="M44.367 248.679H28.085V151.247H36.2225L44.367 162.496V248.679Z" fill="#110C08"/>
<path d="M44.367 248.679H29.6917V152.65H37.245L44.367 162.496V248.679Z" fill="#2F2E33"/>
<path d="M60.7323 149.928H37.0639C36.3128 149.928 35.8815 150.787 36.3197 151.394L44.3668 162.496H69.8436L60.7323 149.928Z" fill="#8D7FF3"/>
<path d="M58.3189 168.908H56.6844C53.2273 168.908 50.4248 171.72 50.4248 175.188V199.667C50.4248 203.135 53.2273 205.947 56.6844 205.947H58.3189C61.776 205.947 64.5786 203.135 64.5786 199.667V175.188C64.5786 171.72 61.776 168.908 58.3189 168.908Z" fill="white"/>
<path d="M63.2432 174.923H52.3584V179.319H63.2432V174.923Z" fill="#D3FB16"/>
<path d="M60.5446 175.83H53.1443V176.64H60.5446V175.83Z" fill="#110C08"/>
<path d="M62.3669 175.83H61.4001V176.64H62.3669V175.83Z" fill="#110C08"/>
<path d="M60.4961 183.911C60.4961 185.404 59.2928 186.611 57.8044 186.611C56.316 186.611 55.1128 185.404 55.1128 183.911C55.1128 182.417 56.316 181.21 57.8044 181.21C59.2928 181.21 60.4961 182.417 60.4961 183.911Z" fill="#110C08"/>
<path d="M59.5711 183.911C59.5711 184.895 58.7782 185.69 57.7975 185.69C56.8168 185.69 56.0239 184.895 56.0239 183.911C56.0239 182.927 56.8168 182.131 57.7975 182.131C58.7782 182.131 59.5711 182.927 59.5711 183.911Z" fill="#D3FB16"/>
<path d="M62.3671 182.822H57.7976V184.902H62.3671V182.822Z" fill="#D3FB16"/>
<path d="M152.812 230.39H136.968C135.806 230.39 134.867 229.448 134.867 228.283C134.867 227.118 135.806 226.176 136.968 226.176H152.812C153.973 226.176 154.912 227.118 154.912 228.283C154.912 229.448 153.973 230.39 152.812 230.39Z" fill="#403D47"/>
<path d="M142.866 228.283C142.866 229.267 143.659 230.062 144.64 230.062C145.62 230.062 146.413 229.267 146.413 228.283C146.413 227.299 145.62 226.504 144.64 226.504C143.659 226.504 142.866 227.299 142.866 228.283Z" fill="#D3FB16"/>
<path d="M144.633 227.187H140.063V229.267H144.633V227.187Z" fill="#D3FB16"/>
<path d="M62.3738 183.862H64.9333C70.5322 183.862 75.0739 188.418 75.0739 194.036V241.171C75.0739 246.788 79.6156 251.345 85.2145 251.345H120.943C126.542 251.345 131.084 246.788 131.084 241.171V237.249C131.084 232.267 135.104 228.234 140.07 228.234" stroke="#110C08" stroke-width="1.89" stroke-miterlimit="10"/>
</svg>
