<svg width="227" height="39" viewBox="0 0 227 39" fill="none" xmlns="http://www.w3.org/2000/svg">
<path d="M218.07 0.810699L211.845 27.7141L205.445 0.892237L195.157 0.818465L188.924 27.5317L182.427 0.810699H173.493L182.959 37.2928L194.237 37.2734L200.206 10.3816L206.714 37.2657L218.26 37.2035L227 0.810699H218.07Z" fill="#040505"/>
<path d="M151.527 0.0967118C125.315 2.14979 118.364 40.1415 149.669 38.0178C160.801 37.2641 170.133 28.8084 171.669 17.644C173.469 4.52869 162.995 -0.802245 151.527 0.0967118ZM160.412 24.1958C153.23 34.316 132.574 31.4464 138.906 16.4036C141.186 10.9863 146.735 8.08526 152.439 7.93216C162.469 7.66915 165.968 16.3682 160.412 24.1958Z" fill="#040505"/>
<path d="M34.9169 8.59806L36.4821 0.810699H7.66125L0 37.2928H28.8209L30.4646 29.3462H10.215L11.69 22.3201L30.4449 22.2852L31.9238 15.0804H13.3179L14.7066 8.74565L34.9169 8.59806Z" fill="#040505"/>
<path d="M64.8571 37.2928H73.0283C73.0283 37.2928 73.2986 37.0404 73.2986 37.021V22.3007H91.7956V15.0765H73.5689C73.5689 15.0765 73.2986 14.8241 73.2986 14.8046V8.75342H92.9618C92.9618 8.75342 93.2321 8.50096 93.2321 8.48154V0.810699H64.861V37.2928H64.8571Z" fill="#040505"/>
<path d="M105.781 1.08258C105.781 1.08258 105.529 0.810699 105.509 0.810699H97.2857V37.2928H125.661V29.6181L105.781 29.3462V1.08258Z" fill="#040505"/>
<path d="M36.4821 29.1857H56.6522L58.3714 21.8893H37.9552L36.4821 29.1857Z" fill="#040505"/>
<path d="M38.1036 15.4036H58.2697L59.9929 8.10715H39.5728L38.1036 15.4036Z" fill="#040505"/>
</svg>
