<svg width="393" height="852" viewBox="0 0 393 852" fill="none" xmlns="http://www.w3.org/2000/svg">
<g clip-path="url(#clip0_1_4)">
<rect width="393" height="852" fill="white"/>
<path d="M300.07 407.811L293.845 434.714L287.445 407.892L277.157 407.818L270.924 434.532L264.427 407.811H255.493L264.959 444.293L276.237 444.273L282.206 417.382L288.714 444.266L300.26 444.204L309 407.811H300.07Z" fill="#040505"/>
<path d="M233.527 407.097C207.315 409.15 200.364 447.142 231.669 445.018C242.801 444.264 252.133 435.808 253.669 424.644C255.469 411.529 244.995 406.198 233.527 407.097ZM242.412 431.196C235.23 441.316 214.574 438.446 220.906 423.404C223.186 417.986 228.735 415.085 234.439 414.932C244.469 414.669 247.968 423.368 242.412 431.196Z" fill="#040505"/>
<path d="M116.917 415.598L118.482 407.811H89.6613L82 444.293H110.821L112.465 436.346H92.215L93.69 429.32L112.445 429.285L113.924 422.08H95.3179L96.7066 415.746L116.917 415.598Z" fill="#040505"/>
<path d="M146.857 444.293H155.028C155.028 444.293 155.299 444.04 155.299 444.021V429.301H173.796V422.077H155.569C155.569 422.077 155.299 421.824 155.299 421.805V415.753H174.962C174.962 415.753 175.232 415.501 175.232 415.482V407.811H146.861V444.293H146.857Z" fill="#040505"/>
<path d="M187.781 408.083C187.781 408.083 187.529 407.811 187.509 407.811H179.286V444.293H207.661V436.618L187.781 436.346V408.083Z" fill="#040505"/>
<path d="M118.482 436.186H138.652L140.371 428.889H119.955L118.482 436.186Z" fill="#040505"/>
<path d="M120.104 422.404H140.27L141.993 415.107H121.573L120.104 422.404Z" fill="#040505"/>
<rect x="325.239" y="48.7797" width="104.059" height="49.914" rx="24.957" transform="rotate(-49.2651 325.239 48.7797)" fill="#A1D0FE"/>
<rect x="194.561" y="198.425" width="175.208" height="49.914" rx="24.957" transform="rotate(-49.1415 194.561 198.425)" fill="#DAF819"/>
<rect x="185" y="103.902" width="223.319" height="49.914" rx="24.957" transform="rotate(-49.1415 185 103.902)" fill="#685BC6"/>
<rect x="291.213" y="199.754" width="177.969" height="49.914" rx="24.957" transform="rotate(-49.2651 291.213 199.754)" fill="#FE5729"/>
<rect x="69.9313" y="803.546" width="104.059" height="49.914" rx="24.957" transform="rotate(130.735 69.9313 803.546)" fill="#FE5729"/>
<rect x="200.609" y="653.9" width="175.208" height="49.914" rx="24.957" transform="rotate(130.859 200.609 653.9)" fill="#685BC6"/>
<rect x="210.17" y="748.424" width="223.319" height="49.914" rx="24.957" transform="rotate(130.859 210.17 748.424)" fill="#DAF819"/>
<rect x="103.957" y="652.572" width="177.969" height="49.914" rx="24.957" transform="rotate(130.735 103.957 652.572)" fill="#A1D0FE"/>
</g>
<defs>
<clipPath id="clip0_1_4">
<rect width="393" height="852" fill="white"/>
</clipPath>
</defs>
</svg>
